<svg width="154" height="66" viewBox="0 0 154 66" fill="none" xmlns="http://www.w3.org/2000/svg">
<path opacity="0.8" d="M107.236 53.496C106.264 53.496 105.412 53.904 104.968 54.576V51.06H103.936V60H104.944V59.076C105.412 59.76 106.276 60.144 107.224 60.144C109.024 60.144 110.44 58.74 110.44 56.82C110.44 54.9 109.024 53.496 107.236 53.496ZM107.164 59.148C105.904 59.148 104.968 58.164 104.968 56.82C104.968 55.488 105.904 54.492 107.164 54.492C108.412 54.492 109.348 55.488 109.348 56.82C109.348 58.164 108.412 59.148 107.164 59.148ZM115.621 53.628L113.665 58.548L111.709 53.628H110.533L113.077 59.94L112.801 60.6C112.609 61.044 112.369 61.62 111.433 61.62C111.181 61.62 110.893 61.584 110.773 61.548V62.472C111.013 62.568 111.325 62.604 111.613 62.604C113.101 62.604 113.557 61.596 113.881 60.792L116.821 53.628H115.621ZM124.58 55.188C125.18 54.768 125.504 54.132 125.504 53.376C125.504 51.972 124.484 51.06 122.9 51.06H119.168V60H122.9C124.712 60 125.864 59.004 125.864 57.384C125.864 56.46 125.432 55.656 124.58 55.188ZM120.308 52.044H122.864C123.752 52.044 124.328 52.584 124.328 53.4C124.328 54.216 123.752 54.756 122.864 54.756H120.308V52.044ZM122.948 59.004H120.308V55.752H122.948C123.992 55.752 124.688 56.4 124.688 57.384C124.688 58.356 123.992 59.004 122.948 59.004ZM136.665 51.06L134.661 58.488L132.693 51.06H131.325L129.357 58.512L127.353 51.06H126.165L128.661 60H129.957L131.997 52.524L134.025 60H135.333L137.829 51.06H136.665ZM142.115 51.06H140.807L137.567 60H138.767L139.511 57.864H143.411L144.155 60H145.355L142.115 51.06ZM139.859 56.868L141.467 52.296L143.063 56.868H139.859ZM152.488 60L149.656 55.452L152.404 51.06H151.132L149.032 54.456L146.92 51.06H145.648L148.396 55.452L145.576 60H146.824L149.032 56.46L151.228 60H152.488Z" fill="white"/>
<path d="M69.3289 11.846L63.8132 27.7276L63.0524 11.846H55.9199L49.4532 27.7751L49.5007 11.846H44.9835C46.4576 14.9367 47.3134 18.4078 47.3134 22.0692C47.3134 26.4913 46.0772 30.6756 43.9374 34.2419L43.985 35.1929H51.9733L57.7744 20.8804L58.4876 35.1929H66.4759L76.3187 11.846H69.3289Z" fill="white"/>
<path d="M78.2683 16.601H84.735L81.4541 35.1453H74.9398L78.2683 16.601Z" fill="white"/>
<path d="M78.6011 11.5607C78.934 9.6587 80.6458 8.18466 82.9757 8.18466C85.2581 8.18466 86.4944 9.6587 86.1615 11.5607C85.8287 13.4151 84.0693 14.8892 81.7869 14.8892C79.5046 14.8892 78.2683 13.4151 78.6011 11.5607Z" fill="url(#paint0_linear_24_785)"/>
<path d="M100.379 16.3632C104.801 16.3632 107.654 19.9294 106.608 25.8731C105.562 31.8168 101.425 35.383 97.0028 35.383C94.3876 35.383 92.7709 34.1943 92.0577 32.5776L90.0606 44.0371H83.5938L88.4439 16.6009H94.9107L94.4352 19.1686C95.719 17.5044 97.8112 16.3632 100.379 16.3632ZM97.3357 22.0216C95.5288 22.0216 93.6744 23.4005 93.2464 25.8731C92.8185 28.3933 94.1023 29.7246 95.9092 29.7246C97.7636 29.7246 99.5705 28.3457 99.9985 25.8731C100.474 23.353 99.1426 22.0216 97.3357 22.0216Z" fill="white"/>
<path d="M117.83 16.3632C120.492 16.3632 122.109 17.5044 122.775 19.1686L123.25 16.6009H129.717L126.436 35.1453H119.969L120.445 32.5776C119.209 34.2419 117.116 35.383 114.501 35.383C110.079 35.383 107.274 31.7693 108.272 25.8731C109.271 19.9294 113.407 16.3632 117.83 16.3632ZM118.923 22.0216C117.069 22.0216 115.262 23.353 114.834 25.8731C114.358 28.3457 115.69 29.7246 117.497 29.7246C119.351 29.7246 121.158 28.3457 121.586 25.8731C122.014 23.353 120.73 22.0216 118.923 22.0216Z" fill="white"/>
<path d="M131.429 16.601H138.609L140.606 27.1094L146.264 16.601H153.397L136.802 43.9896H129.765L135.898 34.3845L131.429 16.601Z" fill="white"/>
<path d="M21.9219 38.9493C21.1136 37.713 21.3038 36.4767 22.5876 35.6684C23.5386 35.0502 24.5847 34.6698 25.5357 34.1468C25.9637 33.909 26.3441 33.5286 26.7245 33.1958C26.3441 32.7678 26.0588 32.1972 25.6308 32.007C23.8715 31.2938 22.0646 30.6756 20.3053 30.01C19.4018 29.6771 18.4984 29.2967 17.6425 28.7737C16.3111 28.0129 16.1684 26.8241 17.3572 25.8731C18.4508 25.0172 19.6871 24.3991 20.8758 23.7334C21.5415 23.353 22.3023 23.0202 22.968 22.5922C23.2533 22.402 23.5862 22.0692 23.5862 21.7839C23.5862 21.5461 23.1582 21.2133 22.8254 21.1182C21.4464 20.7853 20.02 20.4525 18.5935 20.2147C15.3125 19.6917 12.4596 18.5029 10.3674 15.7451C9.51148 14.6514 8.89334 13.4151 8.56049 12.1313C6.61095 14.9843 5.42221 18.4078 5.42221 22.1167C5.42221 31.6266 13.0302 39.3772 22.445 39.6625C22.3023 39.4723 22.0646 39.2346 21.9219 38.9493Z" fill="url(#paint1_linear_24_785)"/>
<path d="M9.79678 10.6097C11.2708 13.7004 13.9336 15.1269 17.6425 15.6024C21.3038 16.0779 24.9176 15.65 28.5789 15.7451C30.8613 15.7926 33.1437 15.9828 35.3309 16.8387C35.9015 17.0765 36.4721 17.4093 36.9476 17.7897C38.0888 18.7407 38.2315 20.0721 37.1378 21.0231C36.1868 21.9265 35.0457 22.6873 33.8569 23.3055C32.5731 23.9711 31.1941 24.3515 29.8627 24.827C28.674 25.255 27.4852 25.7305 26.2965 26.1584C26.1063 26.206 25.9637 26.3011 25.821 26.3962C24.5372 27.157 24.4421 27.9178 25.7735 28.6786C26.9147 29.3443 28.1509 29.8198 29.2921 30.4855C30.0054 30.8658 30.7186 31.2938 31.2892 31.8644C32.5255 33.0056 32.3353 34.3845 30.7662 35.0502C29.625 35.5257 28.3887 35.811 27.2475 36.239C26.2965 36.5718 25.3455 36.8571 24.4896 37.3801C23.4911 37.9507 23.2058 38.7591 23.6337 39.6625C33.0486 39.3297 40.5614 31.6266 40.5614 22.1167C40.5614 12.4166 32.7157 4.57089 23.0156 4.57089C17.7376 4.61844 13.0302 6.94838 9.79678 10.6097Z" fill="url(#paint2_linear_24_785)"/>
<path d="M5.94526 20.6902C5.85016 20.5 5.75506 20.3098 5.61241 20.0721C6.99135 19.4064 8.32274 18.7407 9.70168 18.075C11.0806 17.4093 12.5071 16.7436 13.8861 16.0779C14.314 15.8877 14.5042 15.6975 14.4091 15.222C14.3615 14.9843 14.3616 14.699 14.5042 14.4612C14.837 13.7955 14.5518 13.4151 14.0763 12.9872C12.7449 11.7984 11.5086 10.6097 10.1772 9.37341C10.3198 9.18321 10.4149 9.04056 10.5576 8.85036C10.6527 8.89791 10.7478 8.94546 10.7953 8.99301C12.1743 10.2293 13.5532 11.5131 14.8846 12.7494C15.1699 13.0347 15.3601 13.0347 15.7405 12.8921C17.3096 12.1313 18.9263 12.9872 19.2116 14.6514C19.3067 15.1745 19.4494 15.3647 19.9724 15.4598C22.9205 16.173 25.821 16.9814 28.7691 17.6946C29.0068 17.7422 29.2921 17.6946 29.5299 17.6946C29.4823 17.4569 29.5299 17.1716 29.4348 16.9338C27.6755 12.7494 25.8686 8.61262 24.1092 4.42825C23.9666 4.04785 23.6813 3.6199 24.4896 3.5248C25.0602 4.80864 25.6308 6.14003 26.2014 7.47142C27.5328 10.6097 28.8642 13.748 30.1956 16.8863C30.1956 16.8863 30.1956 16.9338 30.2431 16.9338C30.9564 17.5044 31.6221 18.3603 32.4304 18.598C35.2834 19.4539 38.1839 20.1196 41.0845 20.8329C41.3222 20.8804 41.6551 20.6902 41.8928 20.5476C42.1781 20.3574 42.3683 20.0721 42.6536 19.7868C41.4173 16.8387 40.181 13.8431 38.9447 10.7523C39.1349 10.6573 39.3251 10.5622 39.5629 10.4671C40.8467 13.5102 42.083 16.5534 43.2242 19.2637C44.1276 19.5966 44.8409 19.7392 45.4115 20.1196C46.5527 20.928 46.6953 22.4496 45.7919 23.4481C44.7458 24.6368 43.2717 24.7319 42.2732 23.6383C41.8928 23.2579 41.6551 23.2104 41.1796 23.4006C40.0859 23.8761 38.9923 24.2565 37.8986 24.6844C37.4231 24.8746 37.2329 24.7795 37.1854 24.2089C38.4692 23.6859 39.7531 23.2104 41.0845 22.6873C41.2747 22.5922 41.5599 22.3069 41.5124 22.1643C41.4648 21.9265 41.1796 21.6888 40.9894 21.5937C38.1839 20.8329 35.3309 20.1196 32.478 19.4539C32.1451 19.3588 31.7647 19.2162 31.4794 19.6441C31.3368 19.8343 30.9564 19.9294 30.7186 19.8819C30.1005 19.7868 29.7676 20.1196 29.3872 20.5C26.3916 23.6859 23.4435 26.8717 20.4004 30.01C20.0675 30.3904 19.8773 30.6281 20.1626 31.1987C20.6381 32.1497 20.2102 33.3384 19.4018 33.909C18.4984 34.5272 17.3572 34.4321 16.5013 33.6713C16.4062 33.5762 16.2635 33.4811 16.1684 33.3384C14.5993 34.0992 13.0302 34.86 11.5086 35.6208C11.0806 35.8586 10.7953 35.811 10.7478 35.1929C12.2218 34.4796 13.7434 33.7664 15.2174 33.0056C15.5027 32.8629 15.8356 32.5301 15.8356 32.2923C15.8356 31.7217 16.1684 31.1036 15.3601 30.6757C13.7909 29.8198 12.3169 28.8212 10.7953 27.9178C10.5576 27.7751 10.1296 27.7751 9.84434 27.8702C9.17865 28.0604 8.60804 28.108 8.085 27.6325C7.56195 27.157 7.46686 26.5388 7.70461 25.8731C7.9899 25.2074 8.51294 24.827 9.22619 24.9697C9.79678 25.0648 9.98698 24.6844 10.2247 24.3516C11.6988 22.2594 13.1728 20.1196 14.6468 17.9799C14.837 18.1225 15.0272 18.2176 15.265 18.3603C13.791 20.5 12.3169 22.5922 10.8904 24.6368C10.2247 25.5878 10.4625 26.9192 11.461 27.5374C12.9351 28.4408 14.3615 29.2967 15.8356 30.2002C16.1684 30.4379 16.4537 30.533 16.8341 30.2002C17.4523 29.6771 18.2131 29.6296 18.9263 29.9149C19.3067 30.0575 19.5445 30.0575 19.8298 29.7247C22.9205 26.3962 26.0588 23.1153 29.1495 19.8343C29.8152 19.1211 29.6725 18.7407 28.7215 18.5029C25.7735 17.7421 22.8254 16.9814 19.8773 16.173C19.4969 16.0779 19.3067 16.0779 19.069 16.4108C18.6886 16.8863 18.1655 17.1716 17.5949 17.647C17.7851 21.1182 18.0229 24.7319 18.2606 28.3933C18.0229 28.3933 17.8327 28.4408 17.5474 28.4884C17.4047 26.0633 17.2621 23.6859 17.0719 21.3559C17.0243 20.2623 16.9768 19.1686 16.8817 18.075C16.8817 17.8372 16.5964 17.5995 16.4062 17.4569C16.216 17.2667 15.8356 17.2667 15.6929 17.0765C15.1699 16.4108 14.6468 16.6485 14.0287 16.9338C11.2233 18.1701 8.56049 19.4064 5.94526 20.6902ZM17.7376 15.1269C17.7376 14.5563 17.2621 14.0808 16.7866 14.1284C16.216 14.1759 15.8831 14.5088 15.8831 15.0794C15.8831 15.65 16.3111 16.0779 16.8341 16.0304C17.4523 15.9353 17.7376 15.6024 17.7376 15.1269ZM17.9278 32.958C18.4508 32.9105 18.7837 32.5776 18.8312 32.0546C18.8788 31.5791 18.3557 31.056 17.8802 31.1036C17.3096 31.1511 16.9768 31.484 16.9768 32.0546C16.9768 32.5776 17.3096 32.9105 17.9278 32.958ZM43.8423 21.0231C43.3193 21.0231 42.8438 21.451 42.8913 21.9741C42.9389 22.5447 43.2717 22.8775 43.8423 22.8775C44.3654 22.8775 44.7458 22.5447 44.7933 21.9741C44.8409 21.4986 44.4129 21.0706 43.8423 21.0231ZM2.99719 19.549C4.51877 15.8877 5.99281 12.2739 7.5144 8.66017C7.56195 8.51752 7.5144 8.23222 7.4193 8.04202C7.08646 7.47143 7.08645 6.94838 7.5144 6.42533C7.94234 5.90229 8.5605 5.80719 9.08354 6.18758C9.51149 6.47288 9.84433 6.37778 10.2247 6.18758C13.5057 4.80864 16.7866 3.47725 20.0675 2.09831C20.543 1.90812 20.7332 2.00321 20.7808 2.57381C19.8773 2.95421 18.9263 3.38215 17.9753 3.76255C15.4552 4.80864 12.9351 5.85474 10.3674 6.90083C10.0345 7.04348 9.79678 7.18613 9.70168 7.61407C9.65413 7.89937 9.32129 8.37487 9.08354 8.42242C7.9899 8.56507 7.8948 9.51606 7.56195 10.2293C6.46831 12.7019 5.51731 15.2696 4.47122 17.7897C4.37612 18.0274 4.28102 18.3127 4.13837 18.5505C3.71043 19.3113 3.61533 19.9294 4.32858 20.6902C4.70897 21.1182 4.56632 21.9741 4.70897 22.6398C4.75652 22.8775 4.80407 23.2104 4.99427 23.353C5.51732 23.781 6.04036 24.1138 6.65851 24.5417C6.51586 24.7319 6.42077 24.9221 6.27812 25.1123C5.70752 24.7319 5.13691 24.3991 4.66142 23.9712C4.28102 23.6383 3.94818 23.5908 3.66288 24.1138C5.08937 27.5374 6.51586 31.0085 7.94235 34.4796C8.03745 34.4796 8.13254 34.4796 8.22764 34.4321C8.22764 32.7678 8.22764 31.1036 8.22764 29.4394C9.03598 29.2492 9.08354 29.2492 9.03599 29.8673C8.98844 31.4364 8.89334 33.0056 8.84579 34.6223C8.84579 35.0978 8.79824 35.5257 9.27374 35.9061C9.70169 36.2865 9.65414 36.8096 9.27374 37.2851C8.89334 37.7606 8.3703 37.8081 7.8948 37.5228C7.4193 37.2375 7.27666 36.8096 7.4193 36.239C7.5144 35.9061 7.56195 35.4306 7.4193 35.0978C6.04037 31.7217 4.61387 28.3457 3.23493 24.9697C3.09229 24.6368 3.04473 24.3991 2.56923 24.3991C1.0001 24.3991 -0.0459932 23.4006 0.00155645 21.9265C0.0491061 20.5 1.04765 19.549 2.61679 19.5966C2.71189 19.549 2.80699 19.549 2.99719 19.549ZM1.4756 21.9741C1.4756 22.5447 1.80844 22.83 2.37904 22.8775C2.85454 22.9251 3.37758 22.402 3.33003 21.9265C3.28248 21.3559 2.94964 21.0231 2.37904 21.0231C1.85599 21.0231 1.52315 21.3559 1.4756 21.9741ZM21.3513 31.056C21.2562 30.8659 21.1611 30.6757 21.066 30.4855C21.1611 30.4379 21.2562 30.3428 21.3038 30.3428C24.87 28.9639 28.4838 27.5374 32.05 26.1584C32.5731 25.9682 32.9535 25.778 32.9535 25.1599C32.9535 24.9221 33.1912 24.6844 33.3339 24.3991C32.7157 23.353 32.1451 22.2594 31.527 21.1657C31.8598 20.6902 32.0976 20.7378 32.3829 21.1657C32.8108 21.9741 33.2388 22.7824 33.7618 23.5432C33.9045 23.781 34.2373 23.8761 34.5226 24.0187C34.9981 24.304 35.6162 24.5417 35.9015 24.9221C36.2344 25.4452 36.0917 26.0633 35.6638 26.6339C35.5211 26.8241 35.3785 27.2045 35.426 27.3947C36.0442 29.6296 36.7574 31.8168 37.4231 34.0992C37.756 34.1468 38.0888 34.1468 38.3741 34.1943C39.6104 31.1987 40.8467 28.2506 42.0354 25.3501C42.7962 25.3976 42.6536 25.7305 42.4634 26.1584C41.3222 28.8688 40.2286 31.5791 39.0874 34.2419C39.0398 34.2894 39.0398 34.3845 38.9923 34.4796C39.658 35.0027 40.1335 35.6208 40.1335 36.5243C40.1335 37.5228 39.7055 38.236 38.8496 38.7115C37.9937 39.1395 36.9952 39.2346 36.377 38.5213C35.5687 37.6179 34.903 38.1409 34.1422 38.4262C31.5745 39.5199 28.9593 40.566 26.3916 41.6121C26.3441 41.6596 26.249 41.6596 26.1539 41.6596C26.1063 41.517 26.0112 41.3268 25.9161 41.1366C26.0112 41.089 26.1063 40.9939 26.249 40.9464C29.0544 39.7576 31.8598 38.5689 34.7128 37.4277C35.1883 37.2375 35.426 36.9998 35.3785 36.4292C35.3309 35.6684 35.6638 35.0502 36.2819 34.6223C36.6148 34.3845 36.7099 34.1943 36.5672 33.8139C35.9491 31.8168 35.331 29.7722 34.7604 27.7751C34.6177 27.3472 34.3324 27.2521 33.9996 26.9668C33.001 26.1584 32.1927 26.7766 31.3368 27.1094C28.0083 28.4408 24.7274 29.7247 21.3513 31.056ZM37.5182 37.5228C38.279 37.5228 38.7545 37.0949 38.6594 36.6194C38.6119 36.0963 38.3266 35.7159 37.756 35.6684C37.2329 35.6208 36.805 36.0963 36.805 36.6669C36.9001 37.2375 37.1854 37.5228 37.5182 37.5228ZM35.7589 6.14003C37.0427 4.80864 38.3741 4.71354 39.4202 5.75964C40.0859 6.47288 40.2761 7.51897 39.8006 8.37487C39.3727 9.23076 38.4217 9.80136 37.4707 9.56361C36.9001 9.42096 36.7099 9.61116 36.4721 10.0391C35.1883 12.0837 33.9045 14.0808 32.6206 16.0779C32.3829 16.4583 32.1451 16.6961 31.7172 16.173C32.7157 14.6039 33.7143 13.0347 34.7128 11.4656C34.9506 11.0852 35.1883 10.6573 35.4736 10.3244C36.0442 9.61116 36.377 8.94546 35.7113 8.13712C35.6162 8.04202 35.5687 7.89937 35.6162 7.80427C35.8064 6.85328 35.2834 6.61553 34.5226 6.33023C31.2417 5.04639 28.0083 3.66745 24.7749 2.33606C24.2519 2.09831 23.0156 2.57381 22.7778 3.14441C21.5415 5.85474 20.3053 8.56507 19.069 11.2754C18.8788 11.7033 18.6886 12.0362 18.1655 11.5131C19.2116 9.18321 20.3053 6.80573 21.3989 4.4758C21.5891 4.04785 21.7793 3.57235 22.017 3.14441C22.2072 2.71646 22.3974 2.33606 22.0646 1.81302C21.6842 1.19487 22.0646 0.386526 22.7303 0.101228C23.4435 -0.184069 24.2519 0.148778 24.4421 0.909573C24.5847 1.38507 24.87 1.57527 25.298 1.76547C28.674 3.19196 32.1927 4.666 35.7589 6.14003ZM37.756 6.37778C37.2329 6.42533 36.8525 6.71063 36.8525 7.28123C36.8525 7.85182 37.1378 8.18467 37.7084 8.23222C38.2315 8.27977 38.707 7.80427 38.6594 7.32878C38.6594 6.75818 38.3266 6.47288 37.756 6.37778ZM32.1451 28.3933C29.4823 32.3874 26.8196 36.4292 24.1568 40.4233C24.0141 40.6611 23.6813 40.7562 23.396 40.8513C22.7778 40.9939 22.4925 40.6611 22.2548 40.138C21.494 38.4738 20.6381 36.8096 19.7822 35.0978C19.5445 35.2404 19.3543 35.3355 19.1641 35.4306C20.02 37.19 20.8759 38.9017 21.7318 40.6135C21.8269 40.8513 21.7318 41.1366 21.7318 41.4219C21.494 41.4219 21.2087 41.4694 20.971 41.3743C17.5949 39.9954 14.2189 38.6164 10.7953 37.19C10.7002 37.4277 10.6527 37.6179 10.5576 37.9032C11.2708 38.1409 11.9365 38.3787 12.6022 38.664C15.265 39.8052 17.9278 40.9464 20.6381 42.04C21.066 42.2302 21.3038 42.4204 21.3513 42.9435C21.3989 43.9896 22.4925 44.7503 23.5386 44.5126C24.5372 44.3224 25.3931 43.0861 24.9176 42.1827C24.4421 41.3268 24.8225 40.8037 25.2504 40.1856C27.8181 36.3341 30.3382 32.4825 32.9059 28.6786C33.1437 28.2982 33.2388 28.0604 32.6206 27.8702C32.4304 28.0129 32.2878 28.2031 32.1451 28.3933Z" fill="white"/>
<defs>
<linearGradient id="paint0_linear_24_785" x1="78.5675" y1="11.5339" x2="86.2478" y2="11.5339" gradientUnits="userSpaceOnUse">
<stop offset="9.59002e-08" stop-color="#EDDE50"/>
<stop offset="1" stop-color="#F6AC59"/>
</linearGradient>
<linearGradient id="paint1_linear_24_785" x1="30.5" y1="58" x2="16.0803" y2="12.1642" gradientUnits="userSpaceOnUse">
<stop offset="9.59002e-08" stop-color="#ED5950"/>
<stop offset="1" stop-color="#F6AC59"/>
</linearGradient>
<linearGradient id="paint2_linear_24_785" x1="25.1764" y1="39.7086" x2="25.1764" y2="4.61381" gradientUnits="userSpaceOnUse">
<stop offset="9.59002e-08" stop-color="#EDC150"/>
<stop offset="1" stop-color="#F6AC59"/>
</linearGradient>
</defs>
</svg>
