<svg width="22" height="22" viewBox="0 0 22 22" fill="none" xmlns="http://www.w3.org/2000/svg">
<path d="M19.3809 12.0476V15.1905C19.3809 16.5519 16.0977 18.3334 12.0476 18.3334C7.99748 18.3334 4.71423 16.5519 4.71423 15.1905C4.71423 14.7426 4.71423 13.8696 4.71423 12.5714" stroke="white" stroke-opacity="0.4" stroke-linecap="round" stroke-linejoin="round"/>
<path d="M5.02209 12.8425C5.92808 14.0454 8.73066 15.1733 12.0476 15.1733C16.0977 15.1733 19.3809 13.4917 19.3809 12.0452C19.3809 11.2335 18.3471 10.344 16.7241 9.71947" stroke="white" stroke-opacity="0.4" stroke-linecap="round" stroke-linejoin="round"/>
<path d="M16.2381 6.80952V9.95238C16.2381 11.3138 12.9548 13.0952 8.90474 13.0952C4.85466 13.0952 1.57141 11.3138 1.57141 9.95238C1.57141 9.28056 1.57141 7.48134 1.57141 6.80952" stroke="white" stroke-opacity="0.4" stroke-linecap="round" stroke-linejoin="round"/>
<path fill-rule="evenodd" clip-rule="evenodd" d="M8.90474 9.93524C12.9548 9.93524 16.2381 8.25356 16.2381 6.8071C16.2381 5.36064 12.9548 3.66667 8.90474 3.66667C4.85466 3.66667 1.57141 5.36064 1.57141 6.8071C1.57141 8.25356 4.85466 9.93524 8.90474 9.93524Z" stroke="white" stroke-opacity="0.4" stroke-linecap="round" stroke-linejoin="round"/>
</svg>
