<svg width="22" height="22" viewBox="0 0 22 22" fill="none" xmlns="http://www.w3.org/2000/svg">
<path d="M19.381 12.0476V15.1905C19.381 16.5519 16.0977 18.3333 12.0476 18.3333C7.99753 18.3333 4.71428 16.5519 4.71428 15.1905C4.71428 14.7426 4.71428 13.8696 4.71428 12.5714" stroke="#2F363E" stroke-opacity="0.4" stroke-linecap="round" stroke-linejoin="round"/>
<path d="M5.02214 12.8425C5.92812 14.0454 8.7307 15.1733 12.0476 15.1733C16.0977 15.1733 19.381 13.4917 19.381 12.0452C19.381 11.2335 18.3472 10.344 16.7242 9.71947" stroke="#2F363E" stroke-opacity="0.4" stroke-linecap="round" stroke-linejoin="round"/>
<path d="M16.2381 6.80952V9.95238C16.2381 11.3138 12.9549 13.0952 8.90476 13.0952C4.85467 13.0952 1.57143 11.3138 1.57143 9.95238C1.57143 9.28056 1.57143 7.48134 1.57143 6.80952" stroke="#2F363E" stroke-opacity="0.4" stroke-linecap="round" stroke-linejoin="round"/>
<path fill-rule="evenodd" clip-rule="evenodd" d="M8.90476 9.93524C12.9549 9.93524 16.2381 8.25356 16.2381 6.8071C16.2381 5.36064 12.9549 3.66667 8.90476 3.66667C4.85467 3.66667 1.57143 5.36064 1.57143 6.8071C1.57143 8.25356 4.85467 9.93524 8.90476 9.93524Z" stroke="#2F363E" stroke-opacity="0.4" stroke-linecap="round" stroke-linejoin="round"/>
</svg>
