<svg width="22" height="22" viewBox="0 0 22 22" fill="none" xmlns="http://www.w3.org/2000/svg">
<path fill-rule="evenodd" clip-rule="evenodd" d="M13.6556 2.60524C14.0351 2.60524 14.3431 2.91324 14.3431 3.29274C14.3431 3.67224 14.0351 3.98024 13.6556 3.98024H6.99323C4.69423 3.98024 3.20831 5.56057 3.20831 8.00807V15.4166C3.20831 17.8962 4.65848 19.4362 6.99323 19.4362H14.8802C17.1792 19.4362 18.6651 17.8586 18.6651 15.4166V8.96415C18.6651 8.58465 18.9731 8.27665 19.3526 8.27665C19.7321 8.27665 20.0401 8.58465 20.0401 8.96415V15.4166C20.0401 18.6432 17.9666 20.8112 14.8802 20.8112H6.99323C3.90681 20.8112 1.83331 18.6432 1.83331 15.4166V8.00807C1.83331 4.77682 3.90681 2.60524 6.99323 2.60524H13.6556ZM15.5947 8.86589C15.8953 9.09872 15.9503 9.53047 15.7175 9.83022L13.0317 13.2952C12.9198 13.4401 12.7548 13.5345 12.5733 13.5565C12.39 13.5812 12.2085 13.5281 12.0637 13.4153L9.48051 11.3858L7.16043 14.4007C7.02476 14.5767 6.82126 14.6693 6.61501 14.6693C6.46835 14.6693 6.32076 14.6226 6.1961 14.5272C5.89543 14.2953 5.8386 13.8636 6.07051 13.5629L8.8141 9.99705C8.92593 9.8513 9.09185 9.75689 9.27335 9.73397C9.45851 9.71014 9.64001 9.76147 9.78393 9.87605L12.3689 11.9065L14.6303 8.98872C14.8632 8.68714 15.294 8.63122 15.5947 8.86589ZM18.3034 1.83331C19.6546 1.83331 20.7528 2.93148 20.7528 4.28265C20.7528 5.63381 19.6546 6.7329 18.3034 6.7329C16.9532 6.7329 15.8541 5.63381 15.8541 4.28265C15.8541 2.93148 16.9532 1.83331 18.3034 1.83331ZM18.3034 3.20831C17.7113 3.20831 17.2291 3.68956 17.2291 4.28265C17.2291 4.87481 17.7113 5.3579 18.3034 5.3579C18.8956 5.3579 19.3778 4.87481 19.3778 4.28265C19.3778 3.68956 18.8956 3.20831 18.3034 3.20831Z" fill="#EDC150"/>
</svg>
