<svg width="34" height="34" viewBox="0 0 34 34" fill="none" xmlns="http://www.w3.org/2000/svg">
<g opacity="0.05">
<path fill-rule="evenodd" clip-rule="evenodd" d="M21.1041 4.02629C21.6906 4.02629 22.1666 4.50229 22.1666 5.08879C22.1666 5.67529 21.6906 6.15129 21.1041 6.15129H10.8078C7.25479 6.15129 4.95837 8.59362 4.95837 12.3761V23.8256C4.95837 27.6577 7.19954 30.0377 10.8078 30.0377H22.9968C26.5498 30.0377 28.8462 27.5996 28.8462 23.8256V13.8537C28.8462 13.2672 29.3222 12.7912 29.9087 12.7912C30.4952 12.7912 30.9712 13.2672 30.9712 13.8537V23.8256C30.9712 28.8123 27.7667 32.1627 22.9968 32.1627H10.8078C6.03787 32.1627 2.83337 28.8123 2.83337 23.8256V12.3761C2.83337 7.38237 6.03787 4.02629 10.8078 4.02629H21.1041ZM24.1009 13.7018C24.5656 14.0617 24.6506 14.7289 24.2908 15.1922L20.1399 20.5472C19.9671 20.771 19.7121 20.9169 19.4316 20.9509C19.1483 20.9892 18.8678 20.907 18.6439 20.7328L14.6518 17.5963L11.0662 22.2557C10.8565 22.5277 10.542 22.6708 10.2233 22.6708C9.99661 22.6708 9.76853 22.5985 9.57586 22.4512C9.11119 22.0928 9.02336 21.4255 9.38177 20.9608L13.6219 15.45C13.7947 15.2248 14.0511 15.0788 14.3316 15.0434C14.6178 15.0066 14.8983 15.0859 15.1207 15.263L19.1157 18.4009L22.6106 13.8917C22.9704 13.4256 23.6363 13.3392 24.1009 13.7018ZM28.2872 2.83331C30.3754 2.83331 32.0725 4.53048 32.0725 6.61865C32.0725 8.70681 30.3754 10.4054 28.2872 10.4054C26.2004 10.4054 24.5019 8.70681 24.5019 6.61865C24.5019 4.53048 26.2004 2.83331 28.2872 2.83331ZM28.2872 4.95831C27.372 4.95831 26.6269 5.70206 26.6269 6.61865C26.6269 7.53381 27.372 8.2804 28.2872 8.2804C29.2024 8.2804 29.9475 7.53381 29.9475 6.61865C29.9475 5.70206 29.2024 4.95831 28.2872 4.95831Z" fill="white"/>
</g>
</svg>
