<svg width="22" height="22" viewBox="0 0 22 22" fill="none" xmlns="http://www.w3.org/2000/svg">
<path fill-rule="evenodd" clip-rule="evenodd" d="M13.6556 2.60524C14.0351 2.60524 14.3431 2.91324 14.3431 3.29274C14.3431 3.67224 14.0351 3.98024 13.6556 3.98024H6.99329C4.69429 3.98024 3.20837 5.56057 3.20837 8.00807V15.4166C3.20837 17.8962 4.65854 19.4362 6.99329 19.4362H14.8803C17.1793 19.4362 18.6652 17.8586 18.6652 15.4166V8.96415C18.6652 8.58465 18.9732 8.27665 19.3527 8.27665C19.7322 8.27665 20.0402 8.58465 20.0402 8.96415V15.4166C20.0402 18.6432 17.9667 20.8112 14.8803 20.8112H6.99329C3.90687 20.8112 1.83337 18.6432 1.83337 15.4166V8.00807C1.83337 4.77682 3.90687 2.60524 6.99329 2.60524H13.6556ZM15.5947 8.86589C15.8954 9.09872 15.9504 9.53047 15.7176 9.83022L13.0317 13.2952C12.9199 13.4401 12.7549 13.5345 12.5734 13.5565C12.3901 13.5812 12.2086 13.5281 12.0637 13.4153L9.48057 11.3858L7.16049 14.4007C7.02482 14.5767 6.82132 14.6693 6.61507 14.6693C6.46841 14.6693 6.32082 14.6226 6.19616 14.5272C5.89549 14.2953 5.83866 13.8636 6.07057 13.5629L8.81416 9.99705C8.92599 9.8513 9.09191 9.75689 9.27341 9.73397C9.45857 9.71014 9.64007 9.76147 9.78399 9.87605L12.369 11.9065L14.6304 8.98872C14.8632 8.68714 15.2941 8.63122 15.5947 8.86589ZM18.3035 1.83331C19.6547 1.83331 20.7528 2.93148 20.7528 4.28265C20.7528 5.63381 19.6547 6.7329 18.3035 6.7329C16.9532 6.7329 15.8542 5.63381 15.8542 4.28265C15.8542 2.93148 16.9532 1.83331 18.3035 1.83331ZM18.3035 3.20831C17.7113 3.20831 17.2292 3.68956 17.2292 4.28265C17.2292 4.87481 17.7113 5.3579 18.3035 5.3579C18.8957 5.3579 19.3778 4.87481 19.3778 4.28265C19.3778 3.68956 18.8957 3.20831 18.3035 3.20831Z" fill="#EDDE50"/>
</svg>
