<svg width="22" height="22" viewBox="0 0 22 22" fill="none" xmlns="http://www.w3.org/2000/svg">
<path fill-rule="evenodd" clip-rule="evenodd" d="M13.6556 2.60527C14.0351 2.60527 14.3431 2.91327 14.3431 3.29277C14.3431 3.67227 14.0351 3.98027 13.6556 3.98027H6.99329C4.69429 3.98027 3.20837 5.5606 3.20837 8.0081V15.4166C3.20837 17.8962 4.65854 19.4362 6.99329 19.4362H14.8803C17.1793 19.4362 18.6652 17.8586 18.6652 15.4166V8.96418C18.6652 8.58468 18.9732 8.27668 19.3527 8.27668C19.7322 8.27668 20.0402 8.58468 20.0402 8.96418V15.4166C20.0402 18.6433 17.9667 20.8112 14.8803 20.8112H6.99329C3.90687 20.8112 1.83337 18.6433 1.83337 15.4166V8.0081C1.83337 4.77685 3.90687 2.60527 6.99329 2.60527H13.6556ZM15.5947 8.86592C15.8954 9.09875 15.9504 9.5305 15.7176 9.83025L13.0317 13.2953C12.9199 13.4401 12.7549 13.5345 12.5734 13.5565C12.3901 13.5813 12.2086 13.5281 12.0637 13.4153L9.48057 11.3858L7.16049 14.4008C7.02482 14.5768 6.82132 14.6693 6.61507 14.6693C6.46841 14.6693 6.32082 14.6226 6.19616 14.5273C5.89549 14.2953 5.83866 13.8636 6.07057 13.5629L8.81416 9.99708C8.92599 9.85133 9.09191 9.75692 9.27341 9.734C9.45857 9.71017 9.64007 9.7615 9.78399 9.87609L12.369 11.9065L14.6304 8.98875C14.8632 8.68717 15.2941 8.63125 15.5947 8.86592ZM18.3035 1.83334C19.6547 1.83334 20.7528 2.93151 20.7528 4.28268C20.7528 5.63384 19.6547 6.73293 18.3035 6.73293C16.9532 6.73293 15.8542 5.63384 15.8542 4.28268C15.8542 2.93151 16.9532 1.83334 18.3035 1.83334ZM18.3035 3.20834C17.7113 3.20834 17.2292 3.68959 17.2292 4.28268C17.2292 4.87484 17.7113 5.35793 18.3035 5.35793C18.8957 5.35793 19.3778 4.87484 19.3778 4.28268C19.3778 3.68959 18.8957 3.20834 18.3035 3.20834Z" fill="#EDC150"/>
</svg>
