<svg width="26" height="26" viewBox="0 0 26 26" fill="none" xmlns="http://www.w3.org/2000/svg">
<path d="M9.75 20.5833V14.0833C9.75 12.8867 8.77995 11.9167 7.58333 11.9167H5.41667C4.22005 11.9167 3.25 12.8867 3.25 14.0833V20.5833C3.25 21.78 4.22005 22.75 5.41667 22.75H7.58333C8.77995 22.75 9.75 21.78 9.75 20.5833ZM9.75 20.5833V9.75C9.75 8.55338 10.72 7.58333 11.9167 7.58333H14.0833C15.28 7.58333 16.25 8.55338 16.25 9.75V20.5833M9.75 20.5833C9.75 21.78 10.72 22.75 11.9167 22.75H14.0833C15.28 22.75 16.25 21.78 16.25 20.5833M16.25 20.5833V5.41667C16.25 4.22005 17.22 3.25 18.4167 3.25H20.5833C21.78 3.25 22.75 4.22005 22.75 5.41667V20.5833C22.75 21.78 21.78 22.75 20.5833 22.75H18.4167C17.22 22.75 16.25 21.78 16.25 20.5833Z" stroke="#9747FF" stroke-width="1.08333" stroke-linecap="round" stroke-linejoin="round"/>
</svg>
