<svg width="30" height="30" viewBox="0 0 30 30" fill="none" xmlns="http://www.w3.org/2000/svg">
<g clip-path="url(#clip0_309_454)">
<path d="M5 16.25C7.22887 16.5149 9.30381 17.5219 10.8909 19.1091C12.4781 20.6962 13.4851 22.7711 13.75 25C14.8549 24.363 15.7791 23.4548 16.4353 22.3612C17.0915 21.2676 17.4579 20.0247 17.5 18.75C19.5989 18.0116 21.4317 16.6675 22.7667 14.8875C24.1017 13.1075 24.8789 10.9717 25 8.75C25 7.75544 24.6049 6.80161 23.9017 6.09835C23.1984 5.39509 22.2446 5 21.25 5C19.0283 5.12113 16.8925 5.89833 15.1125 7.23331C13.3325 8.5683 11.9884 10.4011 11.25 12.5C9.97533 12.5421 8.73245 12.9085 7.63883 13.5647C6.54521 14.2209 5.63699 15.1451 5 16.25Z" stroke="#4A5568" stroke-width="2" stroke-linecap="round" stroke-linejoin="round"/>
<path d="M8.75 17.5C7.44904 18.2345 6.39707 19.3407 5.72894 20.677C5.06082 22.0132 4.80699 23.5186 5 25C6.48145 25.193 7.98678 24.9392 9.32303 24.2711C10.6593 23.6029 11.7655 22.551 12.5 21.25" stroke="#4A5568" stroke-width="2" stroke-linecap="round" stroke-linejoin="round"/>
<path d="M18.75 12.5C19.4404 12.5 20 11.9404 20 11.25C20 10.5596 19.4404 10 18.75 10C18.0596 10 17.5 10.5596 17.5 11.25C17.5 11.9404 18.0596 12.5 18.75 12.5Z" stroke="#4A5568" stroke-width="2" stroke-linecap="round" stroke-linejoin="round"/>
</g>
<defs>
<clipPath id="clip0_309_454">
<rect width="30" height="30" fill="white"/>
</clipPath>
</defs>
</svg>
