<svg width="57" height="13" viewBox="0 0 57 13" fill="none" xmlns="http://www.w3.org/2000/svg">
<path d="M0 12.9882C0.126081 11.6055 0.217777 10.5064 0.252163 9.71455C0.309473 8.62727 0.378243 7.13818 0.435552 5.24727C0.492862 3.35636 0.527248 2.02091 0.527248 1.24091C0.527248 0.969091 0.527247 0.567273 0.515785 0.0709098C1.32958 0.0945462 1.97145 0.0945458 2.45285 0.0945458C3.11764 0.0945458 3.89705 0.0827266 4.77961 0.047272C5.66218 0.0236356 6.43012 0 7.06053 0C7.82847 0 8.36718 0.0236371 8.69958 0.0709098C9.12367 0.130001 9.50191 0.224545 9.82284 0.378181C10.1438 0.52 10.4074 0.697273 10.6252 0.921819C10.8659 1.17 11.0493 1.47727 11.1868 1.83182C11.3358 2.23364 11.416 2.67091 11.416 3.13182C11.416 3.48636 11.3702 3.84091 11.2785 4.16C11.1868 4.49091 11.0607 4.77455 10.9003 5.03455C10.7398 5.29455 10.5564 5.50727 10.3501 5.67273C10.1438 5.83818 9.94892 5.98 9.75407 6.07454C9.55922 6.16909 9.30706 6.26363 8.97466 6.35818C9.2956 6.41727 9.55922 6.47636 9.75407 6.54727C9.94892 6.61818 10.1552 6.73636 10.3845 6.90182C10.6023 7.06727 10.8086 7.26818 10.9805 7.51636C11.1524 7.76455 11.29 8.04818 11.3817 8.36727C11.4734 8.67454 11.5192 9.00546 11.5192 9.36C11.5192 9.84455 11.439 10.2936 11.29 10.7191C11.141 11.1445 10.9232 11.4991 10.6481 11.8064C10.4189 12.0664 10.1094 12.2909 9.74261 12.4682C9.36437 12.6573 8.98612 12.7755 8.59642 12.8464C8.27549 12.8936 7.70239 12.9291 6.85421 12.9645C6.01749 12.9882 5.12347 13 4.18359 13L1.76513 12.9882H0ZM3.87412 10.3882L5.63925 10.3882C6.10919 10.3882 6.45305 10.3645 6.67082 10.3055C6.94591 10.2345 7.14076 10.14 7.28976 10.0336C7.42731 9.91545 7.54193 9.76182 7.62216 9.57273C7.70239 9.37182 7.74824 9.15909 7.74824 8.92273C7.74824 8.71 7.71386 8.53273 7.64508 8.37909C7.57631 8.22545 7.47316 8.08364 7.34707 7.97727C7.20953 7.87091 7.04906 7.78818 6.85421 7.74091C6.65936 7.69364 6.34989 7.67 5.93726 7.67H4.0002L3.87412 10.3882ZM4.0919 5.09364H5.39855C5.82264 5.09364 6.13211 5.08182 6.3155 5.05818C6.49889 5.03454 6.67082 4.99909 6.84275 4.94C7.01468 4.88091 7.16368 4.78636 7.28976 4.65636C7.41585 4.52636 7.50754 4.37273 7.55339 4.20727C7.6107 4.04182 7.63362 3.87636 7.63362 3.71091C7.63362 3.47454 7.57631 3.27364 7.47316 3.08455C7.37 2.90727 7.19807 2.76546 6.95737 2.68273C6.71667 2.6 6.34989 2.55273 5.86849 2.55273H4.21798L4.0919 5.09364ZM15.7716 12.9882L15.4621 11.2509C15.3933 10.8373 15.2787 10.27 15.1182 9.52546L13.6167 2.45818L13.078 0.0709098C13.846 0.082728 14.4764 0.0945458 14.9578 0.0945458C15.4965 0.0945458 16.1269 0.082728 16.8375 0.0709098C16.998 1.09909 17.1355 1.85546 17.2272 2.32818L17.9952 6.14545C18.1556 6.96091 18.3276 7.96545 18.5224 9.14727L18.8204 7.82364L19.9093 3.45091L20.6658 0.0709098C21.5025 0.082728 22.2131 0.0945458 22.7977 0.0945458C23.4281 0.0945458 24.1387 0.082728 24.9182 0.0709098L25.5027 4.05364L26.305 9.12364L26.6604 7.72909C26.7291 7.49273 26.7979 7.24455 26.8667 6.99637C26.9354 6.74818 27.0959 6.26363 27.3252 5.53091L28.4484 1.89091L28.9757 0.0590909C29.7207 0.0709091 30.3282 0.0709098 30.8096 0.0709098C31.3483 0.0709098 31.9672 0.0709091 32.632 0.0590909L29.0674 11.0618L28.4943 12.9882C27.5773 12.9764 26.775 12.9645 26.0873 12.9645C25.3652 12.9645 24.5628 12.9764 23.6917 12.9882L23.4854 11.6882L22.6831 7.17364C22.6372 6.90182 22.6029 6.61818 22.5685 6.33455C22.5341 6.05091 22.4882 5.60182 22.4309 4.99909L22.11 6.46455C22.0298 6.79546 21.9495 7.12636 21.8578 7.45727L20.3792 12.9882C19.4508 12.9764 18.6829 12.9645 18.0754 12.9645C17.4335 12.9645 16.6656 12.9764 15.7716 12.9882ZM42.3861 9.43091L40.2198 10.5655L41.4921 12.9764H44.2544L42.3861 9.43091ZM43.7042 3.49818C44.4263 3.12 45.1484 2.73 45.859 2.35182C45.4579 1.60727 45.0682 0.850908 44.667 0.106363L41.9047 0.106363C42.5122 1.22909 43.1082 2.36364 43.7042 3.49818ZM47.9222 6.53545L45.7559 7.67C46.5811 9.44273 47.4179 11.2036 48.2431 12.9764C49.1944 12.9764 50.1458 12.9764 51.0971 12.9764C50.0312 10.8373 48.9767 8.68636 47.9222 6.53545ZM42.9821 8.07182C47.6586 5.41273 52.335 2.75364 57 0.0945458C55.3953 0.0945458 53.7792 0.0945458 52.1745 0.0945458C48.4953 1.82 44.8504 3.69909 41.2514 5.72C41.217 5.74364 41.1711 5.76727 41.1253 5.79091L40.6209 6.07454C40.5866 6.08636 40.5636 6.11 40.5293 6.12182L38.4776 7.26818L37.4116 7.85909C36.8844 8.15455 36.3571 8.45 35.8643 8.73364L37.5606 5.51909L38.0535 6.44091L40.1969 5.24727L37.5721 0.271819L31.9214 11.0027C31.8641 11.1091 30.8783 12.9882 30.8783 12.9882H33.6407L39.108 10.1164L39.8072 9.75L41.9735 8.61545L42.9821 8.07182Z" fill="url(#paint0_linear_2_569)"/>
<defs>
<linearGradient id="paint0_linear_2_569" x1="1.20184" y1="11.3941" x2="64.1447" y2="-2.03639" gradientUnits="userSpaceOnUse">
<stop stop-color="#EDC150"/>
<stop offset="1" stop-color="#F6AC59"/>
</linearGradient>
</defs>
</svg>
