<svg width="32" height="32" viewBox="0 0 32 32" fill="none" xmlns="http://www.w3.org/2000/svg">
<path fill-rule="evenodd" clip-rule="evenodd" d="M8.33334 17.3333C13.7587 17.3333 14 19.1733 14 23C14 24.9173 14 26.2813 13.1947 27.28C12.268 28.4307 10.5813 28.6667 8.33334 28.6667C6.08534 28.6667 4.39867 28.4307 3.47201 27.28C2.66667 26.2813 2.66667 24.9187 2.66667 23.0333L3.66667 23H2.66667C2.66667 19.1733 2.90801 17.3333 8.33334 17.3333ZM23 17.3333C28.4253 17.3333 28.6667 19.1733 28.6667 23C28.6667 24.9173 28.6667 26.2813 27.8613 27.28C26.9347 28.4307 25.248 28.6667 23 28.6667C20.752 28.6667 19.0653 28.4307 18.1387 27.28C17.3333 26.2813 17.3333 24.9187 17.3333 23.0333L18.3333 23H17.3333C17.3333 19.1733 17.5747 17.3333 23 17.3333ZM8.60822 19.3339L8.33334 19.3333C4.85471 19.3333 4.67631 19.5829 4.66717 22.5027L4.66773 23.6402C4.67405 24.8015 4.71829 25.6404 5.02801 26.0267C5.38134 26.464 6.43067 26.6667 8.33334 26.6667C10.236 26.6667 11.2853 26.4627 11.6387 26.0253C12 25.576 12 24.5093 12 23.032C12 19.6984 12 19.3496 8.60822 19.3339ZM23.2749 19.3339L23 19.3333C19.5214 19.3333 19.343 19.5829 19.3338 22.5027L19.3344 23.6402C19.3407 24.8015 19.385 25.6404 19.6947 26.0267C20.048 26.464 21.0973 26.6667 23 26.6667C24.9027 26.6667 25.952 26.4627 26.3053 26.0253C26.6667 25.576 26.6667 24.5093 26.6667 23.032C26.6667 19.6984 26.6667 19.3496 23.2749 19.3339ZM8.33334 2.66666C13.7587 2.66666 14 4.50666 14 8.33332C14 10.2507 14 11.6147 13.1947 12.6133C12.268 13.764 10.5813 14 8.33334 14C6.08534 14 4.39867 13.764 3.47201 12.6133C2.66667 11.6147 2.66667 10.252 2.66667 8.36666L3.66667 8.33332H2.66667C2.66667 4.50666 2.90801 2.66666 8.33334 2.66666ZM23 2.66666C28.4253 2.66666 28.6667 4.50666 28.6667 8.33332C28.6667 10.2507 28.6667 11.6147 27.8613 12.6133C26.9347 13.764 25.248 14 23 14C20.752 14 19.0653 13.764 18.1387 12.6133C17.3333 11.6147 17.3333 10.252 17.3333 8.36666L18.3333 8.33332H17.3333C17.3333 4.50666 17.5747 2.66666 23 2.66666ZM8.60822 4.66725L8.33334 4.66666C4.85471 4.66666 4.67631 4.91627 4.66717 7.83606L4.66773 8.97356C4.67405 10.1348 4.71829 10.9737 5.02801 11.36C5.38134 11.7973 6.43067 12 8.33334 12C10.236 12 11.2853 11.796 11.6387 11.3587C12 10.9093 12 9.84266 12 8.36532C12 5.03172 12 4.68295 8.60822 4.66725ZM23.2749 4.66725L23 4.66666C19.5214 4.66666 19.343 4.91627 19.3338 7.83606L19.3344 8.97356C19.3407 10.1348 19.385 10.9737 19.6947 11.36C20.048 11.7973 21.0973 12 23 12C24.9027 12 25.952 11.796 26.3053 11.3587C26.6667 10.9093 26.6667 9.84266 26.6667 8.36532C26.6667 5.03172 26.6667 4.68295 23.2749 4.66725Z" fill="#F3B356"/>
</svg>
