<svg width="32" height="32" viewBox="0 0 32 32" fill="none" xmlns="http://www.w3.org/2000/svg">
<g opacity="0.05">
<path fill-rule="evenodd" clip-rule="evenodd" d="M13.5299 6.93802C14.1072 7.39136 14.4392 8.06736 14.4392 8.79269C14.4392 14.6394 14.6366 16.2127 15.4432 16.8114C15.9726 17.202 16.6979 17.198 19.1419 17.13C20.2779 17.0967 21.7326 17.054 23.6379 17.054C24.3979 17.054 25.1139 17.3794 25.5992 17.946C26.0499 18.4727 26.2472 19.1607 26.1432 19.838C25.2526 25.6047 20.3459 29.7927 14.4766 29.7927C7.96457 29.7927 2.66724 24.4954 2.66724 17.9847C2.66724 12.822 6.57124 7.65936 11.3699 6.47802C12.1192 6.29536 12.9246 6.46602 13.5299 6.93802ZM11.9766 8.40469C11.9339 8.40469 11.8912 8.41002 11.8486 8.42069C7.88857 9.39536 4.66724 13.686 4.66724 17.9847C4.66724 23.3927 9.06724 27.7927 14.4766 27.7927C19.3526 27.7927 23.4272 24.3194 24.1659 19.5327C24.1712 19.4927 24.1899 19.3767 24.0806 19.2474C23.9766 19.126 23.8112 19.054 23.6379 19.054C21.7566 19.054 20.3206 19.0967 19.1992 19.1287C16.4846 19.21 15.3619 19.2407 14.2526 18.418C12.6663 17.2429 12.4578 15.2673 12.4405 9.72341L12.4392 8.79269C12.4392 8.68069 12.3912 8.58736 12.2952 8.51269C12.2059 8.44202 12.0926 8.40469 11.9766 8.40469ZM26.7344 4.97842C29.0784 7.32109 30.5664 10.3998 30.5238 12.8224C30.5078 13.7678 29.8211 14.5571 28.8931 14.6971C27.0824 14.9704 24.9624 15.0531 23.0864 15.0531C21.3398 15.0531 19.8024 14.9824 18.9184 14.9318C17.8064 14.8664 16.9211 13.9798 16.8571 12.8678C16.7531 11.1051 16.5278 6.62642 16.6878 3.16242C16.7318 2.15576 17.5451 1.35442 18.5398 1.33709C21.3891 1.25442 24.3291 2.57709 26.7344 4.97842ZM18.7104 3.33576H18.6811C18.5344 6.69442 18.7518 11.0331 18.8531 12.7518C18.8584 12.8544 18.9331 12.9291 19.0344 12.9344C20.4051 13.0131 25.1278 13.2318 28.5238 12.7318C28.5318 10.8598 27.2504 8.32109 25.3211 6.39309C23.3424 4.41709 21.0011 3.33576 18.7104 3.33576Z" fill="white"/>
</g>
</svg>
