<svg width="22" height="22" viewBox="0 0 22 22" fill="none" xmlns="http://www.w3.org/2000/svg">
<path fill-rule="evenodd" clip-rule="evenodd" d="M9.30182 4.76987C9.69874 5.08154 9.92699 5.54629 9.92699 6.04496C9.92699 10.0645 10.0627 11.1462 10.6172 11.5578C10.9812 11.8264 11.4798 11.8236 13.1601 11.7769C13.9411 11.754 14.9412 11.7246 16.2511 11.7246C16.7736 11.7246 17.2658 11.9483 17.5995 12.3379C17.9093 12.7 18.045 13.173 17.9735 13.6386C17.3612 17.6032 13.9878 20.4825 9.95266 20.4825C5.47566 20.4825 1.83374 16.8405 1.83374 12.3645C1.83374 8.81512 4.51774 5.26579 7.81682 4.45362C8.33199 4.32804 8.88566 4.44537 9.30182 4.76987ZM8.23391 5.77821C8.20457 5.77821 8.17524 5.78187 8.14591 5.78921C5.42341 6.45929 3.20874 9.40912 3.20874 12.3645C3.20874 16.0825 6.23374 19.1075 9.95266 19.1075C13.3049 19.1075 16.1062 16.7195 16.6141 13.4287C16.6177 13.4012 16.6306 13.3215 16.5554 13.2325C16.4839 13.1491 16.3702 13.0996 16.2511 13.0996C14.9577 13.0996 13.9704 13.129 13.1995 13.151C11.3332 13.2069 10.5613 13.228 9.79866 12.6624C8.70811 11.8545 8.56472 10.4962 8.55289 6.68483L8.55199 6.04496C8.55199 5.96796 8.51899 5.90379 8.45299 5.85246C8.39157 5.80387 8.31366 5.77821 8.23391 5.77821ZM18.3799 3.42265C19.9914 5.03323 21.0144 7.14981 20.9851 8.8154C20.9741 9.46531 20.502 10.008 19.864 10.1042C18.6192 10.2921 17.1617 10.349 15.8719 10.349C14.6711 10.349 13.6142 10.3004 13.0064 10.2656C12.2419 10.2206 11.6333 9.61106 11.5893 8.84656C11.5178 7.63473 11.3629 4.55565 11.4729 2.17415C11.5031 1.48206 12.0623 0.931147 12.7461 0.919231C14.705 0.862397 16.7263 1.77173 18.3799 3.42265ZM12.8634 2.29331H12.8433C12.7424 4.6024 12.8919 7.58523 12.9615 8.76681C12.9652 8.8374 13.0165 8.88873 13.0862 8.8924C14.0285 8.94648 17.2754 9.09681 19.6101 8.75306C19.6156 7.46606 18.7347 5.72073 17.4083 4.39523C16.0479 3.03673 14.4383 2.29331 12.8634 2.29331Z" fill="#8EAD12"/>
</svg>
