<svg width="62" height="62" viewBox="0 0 62 62" fill="none" xmlns="http://www.w3.org/2000/svg">
<g clip-path="url(#clip0_2_311)">
<path d="M40.6875 0C28.9075 0 19.375 3.41 19.375 7.75V15.5C7.75 15.8875 0 19.1425 0 23.25V31V38.75V46.5C0 50.7237 9.5325 54.25 21.3125 54.25C21.39 54.25 21.4791 54.25 21.5721 54.25C24.4086 54.25 27.1909 54.0369 29.915 53.63C32.6198 58.6869 38.0293 61.9922 44.2137 61.9922C52.0296 61.9922 58.6094 56.7106 60.5817 49.5264C61.3916 48.7552 61.9147 47.8136 62.0039 46.748V38.75V7.75C62.0039 3.41 52.4714 0 40.6914 0L40.6875 0ZM21.3125 19.375C31 19.375 38.75 21.1187 38.75 23.25C38.75 25.3812 31 27.125 21.3125 27.125C11.625 27.125 3.875 25.3812 3.875 23.25C3.875 21.1187 11.625 19.375 21.3125 19.375ZM21.3125 50.375C10.8112 50.375 4.84375 47.6237 3.875 46.5V43.4C8.52112 45.384 13.9306 46.5349 19.6075 46.5349C20.2081 46.5349 20.8049 46.5232 21.3977 46.4961C23.3662 46.4922 25.389 46.3799 27.3808 46.1667C27.2141 47.6044 27.466 48.9257 27.8574 50.1851C26.1059 50.2665 24.1103 50.3827 22.0914 50.3827C21.8201 50.3827 21.545 50.3789 21.2737 50.375H21.3125ZM27.3962 42.2762C25.5866 42.4971 23.4902 42.625 21.3667 42.625C21.3474 42.625 21.328 42.625 21.3125 42.625C10.8151 42.625 4.84763 39.8737 3.87888 38.75V35.495C8.618 37.5681 14.1437 38.7732 19.9485 38.7732C20.429 38.7732 20.9095 38.7655 21.3861 38.75C23.8351 38.7461 26.3112 38.5795 28.737 38.254C27.9736 39.4397 27.6094 40.7882 27.4117 42.1871L27.3962 42.2762ZM21.3125 34.875C10.8112 34.875 4.84375 32.1237 3.875 31V27.5125C8.61413 29.5856 14.1399 30.7907 19.9446 30.7907C20.4251 30.7907 20.9056 30.783 21.3822 30.7675C21.7233 30.783 22.2038 30.7907 22.6881 30.7907C28.4929 30.7907 34.0148 29.5856 39.0174 27.4117L38.7539 28.83C35.743 29.8569 33.2049 31.6084 31.2558 33.883C28.3417 34.5224 25.0131 34.875 21.6031 34.875C21.5024 34.875 21.4016 34.875 21.3048 34.875H21.3125ZM44.2137 58.125C36.9171 58.125 31 52.2079 31 44.9112C31 37.6146 36.9171 31.6975 44.2137 31.6975C51.5104 31.6975 57.4275 37.6146 57.4275 44.9112C57.4275 52.2079 51.5104 58.125 44.2137 58.125ZM58.125 31C57.4469 31.6471 56.6331 32.1625 55.7341 32.4957C54.6181 31.5502 53.4091 30.7132 52.0994 30.039C54.3275 29.4461 56.3657 28.675 58.2723 27.6752L58.125 31ZM58.125 23.25C57.195 24.4512 51.8862 26.8925 42.625 27.125V23.25C42.6366 23.25 42.6521 23.25 42.6676 23.25C48.2592 23.25 53.5719 22.0681 58.373 19.9369L58.125 23.25ZM58.125 15.5C57.1562 16.7787 51.1888 19.375 40.6875 19.375H39.7963C35.0959 16.9337 29.5352 15.5 23.6414 15.5C23.5871 15.5 23.529 15.5 23.4748 15.5H23.25V12.0125C27.9891 14.0856 33.5149 15.2907 39.3196 15.2907C39.8001 15.2907 40.2806 15.283 40.7572 15.2675C41.0982 15.283 41.5787 15.2907 42.0631 15.2907C47.8679 15.2907 53.3898 14.0856 58.3924 11.9117L58.1289 15.5H58.125ZM40.6875 11.625C31 11.625 23.25 9.88125 23.25 7.75C23.25 5.61875 31 3.875 40.6875 3.875C50.375 3.875 58.125 5.61875 58.125 7.75C58.125 9.88125 50.375 11.625 40.6875 11.625Z" fill="white" fill-opacity="0.05"/>
<path d="M40.6875 42.625H42.625V54.25H46.5V34.875H44.5625L40.6875 42.625Z" fill="white" fill-opacity="0.05"/>
</g>
<defs>
<clipPath id="clip0_2_311">
<rect width="62" height="62" fill="white"/>
</clipPath>
</defs>
</svg>
