<svg width="18" height="18" viewBox="0 0 18 18" fill="none" xmlns="http://www.w3.org/2000/svg">
<g clip-path="url(#clip0_228_387)">
<path d="M10.8 14.5C10.8 14.3674 10.7473 14.2402 10.6536 14.1464C10.5598 14.0527 10.4326 14 10.3 14H7.3C7.16739 14 7.04021 14.0527 6.94645 14.1464C6.85268 14.2402 6.8 14.3674 6.8 14.5C6.8 14.6326 6.85268 14.7598 6.94645 14.8536C7.04021 14.9473 7.16739 15 7.3 15H10.3C10.4326 15 10.5598 14.9473 10.6536 14.8536C10.7473 14.7598 10.8 14.6326 10.8 14.5Z" fill="#30363D"/>
<path d="M11.27 12H8.27C8.13739 12 8.01022 12.0527 7.91645 12.1464C7.82268 12.2402 7.77 12.3674 7.77 12.5C7.77 12.6326 7.82268 12.7598 7.91645 12.8536C8.01022 12.9473 8.13739 13 8.27 13H11.27C11.4026 13 11.5298 12.9473 11.6236 12.8536C11.7173 12.7598 11.77 12.6326 11.77 12.5C11.77 12.3674 11.7173 12.2402 11.6236 12.1464C11.5298 12.0527 11.4026 12 11.27 12Z" fill="#30363D"/>
<path d="M11 16H8C7.86739 16 7.74021 16.0527 7.64645 16.1464C7.55268 16.2402 7.5 16.3674 7.5 16.5C7.5 16.6326 7.55268 16.7598 7.64645 16.8536C7.74021 16.9473 7.86739 17 8 17H11C11.1326 17 11.2598 16.9473 11.3536 16.8536C11.4473 16.7598 11.5 16.6326 11.5 16.5C11.5 16.3674 11.4473 16.2402 11.3536 16.1464C11.2598 16.0527 11.1326 16 11 16Z" fill="#30363D"/>
<path d="M16.35 16H12.85C12.7174 16 12.5902 16.0527 12.4964 16.1464C12.4027 16.2402 12.35 16.3674 12.35 16.5C12.35 16.6326 12.4027 16.7598 12.4964 16.8536C12.5902 16.9473 12.7174 17 12.85 17H16.35C16.4826 17 16.6098 16.9473 16.7036 16.8536C16.7973 16.7598 16.85 16.6326 16.85 16.5C16.85 16.3674 16.7973 16.2402 16.7036 16.1464C16.6098 16.0527 16.4826 16 16.35 16Z" fill="#30363D"/>
<path d="M16.85 14H13.35C13.2174 14 13.0902 14.0527 12.9964 14.1464C12.9027 14.2402 12.85 14.3674 12.85 14.5C12.85 14.6326 12.9027 14.7598 12.9964 14.8536C13.0902 14.9473 13.2174 15 13.35 15H16.85C16.9826 15 17.1098 14.9473 17.2036 14.8536C17.2973 14.7598 17.35 14.6326 17.35 14.5C17.35 14.3674 17.2973 14.2402 17.2036 14.1464C17.1098 14.0527 16.9826 14 16.85 14Z" fill="#30363D"/>
<path d="M16.87 13C16.7235 11.2395 16.245 9.5226 15.46 7.94C14.708 6.50986 13.6244 5.28059 12.3 4.355L13.5 1.71C13.5387 1.63095 13.5558 1.54309 13.5497 1.4553C13.5435 1.3675 13.5143 1.28289 13.465 1.21C13.4195 1.14606 13.3596 1.09373 13.2901 1.05725C13.2206 1.02076 13.1435 1.00115 13.065 1H4.9C4.81595 0.999791 4.7332 1.02078 4.6594 1.06102C4.5856 1.10126 4.52314 1.15945 4.47779 1.23022C4.43244 1.30099 4.40566 1.38205 4.39993 1.46591C4.3942 1.54977 4.4097 1.63372 4.445 1.71L5.67 4.365C4.35524 5.29146 3.27909 6.5167 2.53 7.94C1.455 9.94 1.12 12.385 1.03 14.08C1.01526 14.3281 1.05208 14.5766 1.13814 14.8098C1.22419 15.0431 1.35761 15.2559 1.53 15.435C1.71118 15.611 1.92571 15.749 2.16098 15.8408C2.39625 15.9327 2.64751 15.9766 2.9 15.97H6V15H2.86C2.74684 14.9996 2.63492 14.9764 2.53096 14.9318C2.427 14.8871 2.33313 14.8219 2.255 14.74C2.17675 14.6588 2.11632 14.5622 2.07758 14.4563C2.03883 14.3503 2.02263 14.2375 2.03 14.125C2.1 12.82 2.375 10.335 3.41 8.4C4.13962 7.01355 5.21852 5.84158 6.54 5H7.04C6.70117 5.46873 6.38901 5.95617 6.105 6.46C5.81574 6.99612 5.56995 7.55457 5.37 8.13L6.055 8.59C6.25738 7.993 6.50648 7.41287 6.8 6.855C7.16043 6.20633 7.56996 5.58619 8.025 5H8.525C8.86042 5.80169 9.09716 6.64118 9.23 7.5C9.33861 8.13755 9.39215 8.78327 9.39 9.43L10.18 8.875C10.158 8.37215 10.1045 7.87118 10.02 7.375C9.88585 6.56409 9.67146 5.76852 9.38 5H9.77L10.225 4H6.605L5.68 2H12.285L11.035 4.735C11.2493 4.84977 11.4548 4.98012 11.65 5.125C12.8751 5.9702 13.8798 7.09665 14.58 8.41C15.2813 9.8501 15.7167 11.4051 15.865 13H16.87Z" fill="#30363D"/>
</g>
<defs>
<clipPath id="clip0_228_387">
<rect width="18" height="18" fill="white"/>
</clipPath>
</defs>
</svg>
