<svg width="14" height="14" viewBox="0 0 14 14" fill="none" xmlns="http://www.w3.org/2000/svg">
<path d="M6.99999 0.333374C10.68 0.333374 13.6667 3.32004 13.6667 7.00004C13.6667 10.68 10.68 13.6667 6.99999 13.6667C3.31999 13.6667 0.333328 10.68 0.333328 7.00004C0.333328 3.32004 3.31999 0.333374 6.99999 0.333374ZM6.99999 1.66671C4.05333 1.66671 1.66666 4.05337 1.66666 7.00004C1.66666 9.94671 4.05333 12.3334 6.99999 12.3334C9.94666 12.3334 12.3333 9.94671 12.3333 7.00004C12.3333 4.05337 9.94666 1.66671 6.99999 1.66671ZM6.99999 3.66671C8.21333 3.66671 9.27533 4.31537 9.85866 5.28537L8.71599 5.97137C8.53617 5.67154 8.28088 5.42408 7.97559 5.25367C7.6703 5.08327 7.32567 4.99587 6.97607 5.00019C6.62647 5.00452 6.28411 5.10042 5.98313 5.27832C5.68215 5.45623 5.43306 5.70993 5.26071 6.01412C5.08836 6.31832 4.99876 6.66238 5.00085 7.012C5.00294 7.36162 5.09665 7.70459 5.27263 8.0067C5.44861 8.30881 5.70071 8.55952 6.0038 8.73381C6.30688 8.9081 6.65037 8.9999 6.99999 9.00004C7.34542 9.00027 7.685 8.91096 7.98563 8.74085C8.28626 8.57073 8.53766 8.3256 8.71533 8.02937L9.85866 8.71471C9.48401 9.34045 8.91443 9.82602 8.23728 10.0969C7.56013 10.3679 6.81281 10.4092 6.10993 10.2145C5.40705 10.0199 4.78742 9.60005 4.34609 9.0194C3.90475 8.43876 3.66607 7.72937 3.66666 7.00004C3.66666 5.16004 5.15999 3.66671 6.99999 3.66671Z" fill="white"/>
</svg>
