<svg width="27" height="26" viewBox="0 0 27 26" fill="none" xmlns="http://www.w3.org/2000/svg">
<g opacity="0.6" clip-path="url(#clip0_2_579)">
<path d="M20.2267 23.24L19.6698 23.8865C19.8317 24.0261 20.0401 24.0997 20.2536 24.0929L20.2267 23.24ZM18.4065 20.3179C18.1145 19.948 17.5778 19.8849 17.2079 20.1769C16.838 20.4689 16.7749 21.0055 17.067 21.3755L18.4065 20.3179ZM19.087 19.6192L18.79 18.8191C18.7787 18.8234 18.7675 18.8278 18.7564 18.8324L19.087 19.6192ZM16.1207 20.499L15.9774 19.6576L15.9635 19.6601L16.1207 20.499ZM10.8225 20.4785L10.6607 21.3163L10.6659 21.3173L10.8225 20.4785ZM7.81534 19.5989L7.50434 20.3935L7.50516 20.3938L7.81534 19.5989ZM6.32186 18.9034L5.8474 19.6125C5.86613 19.6251 5.88534 19.6369 5.90499 19.6478L6.32186 18.9034ZM6.13783 18.801L6.61155 18.0912C6.58199 18.0714 6.55123 18.0536 6.51945 18.0378L6.13783 18.801ZM6.05603 18.7397L6.65942 18.1362C6.60337 18.0803 6.53978 18.0323 6.47049 17.9937L6.05603 18.7397ZM9.73299 21.3344C10.025 20.9644 9.96175 20.4278 9.5918 20.1358C9.22184 19.8439 8.68527 19.9071 8.39329 20.2771L9.73299 21.3344ZM6.57333 23.24L6.54632 24.0929C6.76358 24.0999 6.97525 24.0236 7.13817 23.8797L6.57333 23.24ZM1.45333 19.3942H0.6C0.6 19.44 0.603663 19.4855 0.610952 19.5306L1.45333 19.3942ZM4.39906 4.90794L3.88706 4.22528C3.75638 4.32329 3.65659 4.45674 3.59952 4.60977L4.39906 4.90794ZM10.1473 2.76L10.9968 2.67909C10.9558 2.24824 10.5987 1.91635 10.166 1.90687L10.1473 2.76ZM9.50242 4.98899C9.5471 5.45814 9.96366 5.80225 10.4328 5.75757C10.902 5.71289 11.2461 5.29633 11.2014 4.82717L9.50242 4.98899ZM15.5198 4.88118C15.4597 5.34862 15.79 5.77623 16.2574 5.83627C16.7249 5.89631 17.1525 5.56604 17.2125 5.0986L15.5198 4.88118ZM16.6525 2.76014L16.6338 1.90701C16.2118 1.91628 15.8599 2.23273 15.8062 2.65142L16.6525 2.76014ZM22.4008 4.90808L23.2004 4.60991C23.1432 4.45687 23.0435 4.32343 22.9128 4.22543L22.4008 4.90808ZM25.3467 19.3942L26.1891 19.5306C26.1964 19.4855 26.2 19.44 26.2 19.3942H25.3467ZM11.6611 15.221L10.8078 15.207V15.221H11.6611ZM20.2267 23.24C20.7836 22.5935 20.7836 22.5935 20.7836 22.5935C20.7836 22.5934 20.7836 22.5934 20.7834 22.5934C20.7832 22.5932 20.783 22.593 20.7825 22.5927C20.7818 22.592 20.7807 22.591 20.7789 22.5895C20.7757 22.5867 20.7706 22.5823 20.7639 22.5765C20.7506 22.565 20.7308 22.5478 20.7052 22.5255C20.6538 22.4809 20.5796 22.4159 20.4885 22.3355C20.3059 22.1744 20.0567 21.952 19.7891 21.7063C19.2348 21.1975 18.664 20.644 18.4065 20.3179L17.067 21.3755C17.4232 21.8266 18.0974 22.47 18.6347 22.9634C18.9129 23.2189 19.1709 23.4491 19.3593 23.6153C19.4537 23.6984 19.5309 23.7659 19.5846 23.8126C19.6114 23.8362 19.6324 23.8544 19.6469 23.8669C19.6541 23.873 19.6597 23.878 19.6636 23.8812C19.6655 23.8829 19.6671 23.8841 19.6681 23.8852C19.6686 23.8855 19.6689 23.8858 19.6693 23.8862C19.6694 23.8862 19.6694 23.8864 19.6696 23.8865C19.6696 23.8865 19.6696 23.8865 19.6698 23.8865C19.6698 23.8865 19.6698 23.8865 20.2267 23.24ZM20.9701 17.6997C20.1854 18.2165 19.4454 18.5759 18.79 18.8191L19.3837 20.4193C20.1603 20.131 21.016 19.713 21.9088 19.1251L20.9701 17.6997ZM18.7564 18.8324C17.7894 19.2388 16.8702 19.5057 15.9774 19.6577L16.264 21.3402C17.2941 21.1647 18.3388 20.8591 19.4174 20.4059L18.7564 18.8324ZM15.9635 19.6601C14.1224 20.0054 12.4306 19.9107 10.9791 19.6397L10.6659 21.3173C12.2827 21.6192 14.1912 21.7288 16.278 21.3376L15.9635 19.6601ZM10.9842 19.6407C9.88036 19.4275 8.92848 19.1172 8.12555 18.8039L7.50516 20.3938C8.37945 20.735 9.43232 21.0792 10.6607 21.3163L10.9842 19.6407ZM8.12637 18.8042C7.67924 18.6293 7.20586 18.4202 6.73873 18.1588L5.90499 19.6478C6.46093 19.9591 7.01034 20.2001 7.50434 20.3935L8.12637 18.8042ZM6.79633 18.1941C6.71451 18.1393 6.63706 18.1016 6.6117 18.089C6.57545 18.0709 6.59136 18.0777 6.61155 18.0912L5.66411 19.5108C5.7457 19.5652 5.823 19.6028 5.8481 19.6152C5.8841 19.6333 5.86797 19.6263 5.8474 19.6125L6.79633 18.1941ZM6.51945 18.0378C6.5525 18.0542 6.5876 18.0763 6.62146 18.1033C6.65061 18.1265 6.67114 18.148 6.65942 18.1362L5.45263 19.343C5.49207 19.3826 5.59055 19.4814 5.75622 19.5642L6.51945 18.0378ZM6.47049 17.9937C6.30155 17.8999 6.17211 17.8212 6.08724 17.7676C6.04483 17.7408 6.01363 17.7203 5.9943 17.7075C5.98462 17.701 5.97793 17.6964 5.97428 17.6941C5.97245 17.6927 5.97139 17.692 5.9711 17.6918C5.97095 17.6917 5.971 17.6917 5.97126 17.6918C5.97138 17.692 5.97155 17.6922 5.97177 17.6923C5.97187 17.6923 5.97199 17.6923 5.97213 17.6925C5.97219 17.6925 5.97226 17.6927 5.97233 17.6927C5.97237 17.6927 5.97243 17.6927 5.97245 17.6927C5.9725 17.6929 5.97257 17.6929 5.48323 18.3919C4.99392 19.091 4.99398 19.0911 4.99404 19.0911C4.99405 19.0911 4.99412 19.0911 4.99417 19.0911C4.99426 19.0913 4.99434 19.0913 4.99443 19.0913C4.99462 19.0915 4.9948 19.0916 4.99503 19.0918C4.99544 19.0922 4.99591 19.0925 4.99643 19.0928C4.99747 19.0935 4.99871 19.0944 5.00016 19.0954C5.00305 19.0974 5.00673 19.0998 5.01122 19.1029C5.0202 19.109 5.03237 19.1174 5.04763 19.1275C5.07816 19.1478 5.12111 19.1759 5.17588 19.2106C5.28535 19.2797 5.44231 19.3749 5.64156 19.4857L6.47049 17.9937ZM8.39329 20.2771C8.13282 20.6072 7.55854 21.1728 7.00466 21.6917C6.73664 21.943 6.48699 22.1706 6.30421 22.3357C6.2129 22.4181 6.13853 22.4847 6.08717 22.5304C6.0615 22.5534 6.0416 22.571 6.02822 22.583C6.02153 22.5888 6.01648 22.5934 6.01317 22.5963C6.0115 22.5978 6.01027 22.5988 6.0095 22.5995C6.00911 22.5999 6.00882 22.6 6.00865 22.6002C6.00856 22.6004 6.00851 22.6004 6.00848 22.6004C6.00848 22.6004 6.00848 22.6004 6.00846 22.6004C6.00848 22.6004 6.0085 22.6004 6.57333 23.24C7.13817 23.8797 7.13821 23.8797 7.13824 23.8797C7.13826 23.8795 7.13831 23.8795 7.13836 23.8795C7.13845 23.8794 7.13855 23.8794 7.1387 23.8792C7.13899 23.879 7.13938 23.8787 7.1399 23.8782C7.14092 23.8773 7.14239 23.8759 7.1443 23.8742C7.14812 23.8708 7.15367 23.8659 7.16089 23.8596C7.17529 23.8468 7.1963 23.8282 7.22313 23.8043C7.27677 23.7563 7.35376 23.6874 7.44795 23.6024C7.63613 23.4324 7.89388 23.1974 8.17161 22.9371C8.70921 22.4333 9.37984 21.7819 9.73299 21.3344L8.39329 20.2771ZM6.60035 22.3872C4.61096 22.3241 3.56579 21.4974 2.99811 20.7481C2.70359 20.3594 2.52442 19.9725 2.4197 19.6839C2.36765 19.5405 2.33498 19.4241 2.31609 19.348C2.30666 19.3101 2.30073 19.2824 2.29757 19.2667C2.29599 19.2589 2.29511 19.2541 2.29483 19.2526C2.29469 19.2519 2.2947 19.2519 2.29485 19.2528C2.29493 19.2533 2.29504 19.2539 2.29518 19.2548C2.29525 19.2551 2.29534 19.2557 2.29543 19.2562C2.29547 19.2565 2.29554 19.257 2.29556 19.257C2.29564 19.2575 2.29572 19.258 1.45333 19.3942C0.610952 19.5306 0.611033 19.5311 0.611117 19.5316C0.611148 19.5318 0.611235 19.5323 0.611298 19.5326C0.611424 19.5335 0.61156 19.5343 0.611707 19.5352C0.612001 19.5369 0.612337 19.539 0.612718 19.5412C0.613481 19.5456 0.614421 19.5509 0.615553 19.5572C0.617816 19.5697 0.620849 19.5857 0.62476 19.605C0.632579 19.6437 0.643935 19.6958 0.659717 19.7593C0.691232 19.8863 0.740691 20.0603 0.81543 20.2662C0.964299 20.6763 1.21744 21.2239 1.63779 21.7788C2.49984 22.9166 4.0147 24.0128 6.54632 24.0929L6.60035 22.3872ZM2.30667 19.3942C2.30667 16.2092 3.02186 12.6703 3.75143 9.89817C4.11454 8.51845 4.47772 7.34158 4.74976 6.51066C4.88573 6.09537 4.99876 5.76703 5.07742 5.54352C5.11674 5.43179 5.14747 5.3463 5.16815 5.2893C5.17849 5.26081 5.18631 5.23945 5.19145 5.22547C5.19402 5.21849 5.19592 5.21337 5.19711 5.21013C5.19771 5.20851 5.19815 5.20736 5.19839 5.20668C5.19851 5.20635 5.1986 5.20613 5.19863 5.20603C5.19865 5.20598 5.19865 5.206 5.19867 5.20598C5.19865 5.20601 5.19861 5.2061 4.39906 4.90794C3.59952 4.60977 3.59947 4.60993 3.5994 4.61008C3.59936 4.61018 3.5993 4.61037 3.59921 4.61057C3.59907 4.61095 3.59889 4.61146 3.59866 4.61208C3.59819 4.61332 3.59756 4.61505 3.59674 4.61725C3.59512 4.62165 3.59278 4.62797 3.58977 4.63612C3.58377 4.65246 3.57504 4.67625 3.56381 4.70722C3.54134 4.76916 3.50877 4.85982 3.46756 4.97693C3.38511 5.21117 3.26802 5.55141 3.12781 5.97961C2.84754 6.83564 2.47428 8.04531 2.10097 9.46381C1.35767 12.2881 0.6 15.9923 0.6 19.3942H2.30667ZM4.91107 5.59061C6.27549 4.56728 7.60189 4.07318 8.58013 3.83449C9.06935 3.7151 9.47014 3.65996 9.74256 3.63458C9.87865 3.6219 9.9823 3.61668 10.0484 3.61456C10.0815 3.61351 10.1051 3.61323 10.1187 3.61318C10.1255 3.61315 10.1298 3.61316 10.1315 3.61318C10.1323 3.6132 10.1325 3.6132 10.132 3.6132C10.1318 3.61318 10.1314 3.61318 10.1308 3.61316C10.1306 3.61316 10.1302 3.61316 10.1299 3.61315C10.1297 3.61315 10.1294 3.61315 10.1293 3.61315C10.129 3.61313 10.1286 3.61313 10.1473 2.76C10.166 1.90687 10.1657 1.90686 10.1653 1.90686C10.1652 1.90686 10.1648 1.90684 10.1645 1.90684C10.164 1.90682 10.1634 1.90682 10.1628 1.90681C10.1615 1.90679 10.1601 1.90675 10.1585 1.90674C10.1553 1.90668 10.1515 1.90663 10.1469 1.90659C10.1378 1.90651 10.126 1.90646 10.1115 1.90652C10.0826 1.90664 10.0432 1.9072 9.99385 1.90879C9.89522 1.91194 9.75692 1.91918 9.58424 1.93527C9.23913 1.96743 8.75519 2.03503 8.17555 2.17646C7.01609 2.45939 5.46837 3.03926 3.88706 4.22528L4.91107 5.59061ZM9.29784 2.8409L9.50242 4.98899L11.2014 4.82717L10.9968 2.67909L9.29784 2.8409ZM17.2125 5.0986L17.4989 2.86885L15.8062 2.65142L15.5198 4.88118L17.2125 5.0986ZM16.6525 2.76014C16.6713 3.61327 16.6709 3.61327 16.6706 3.61328C16.6705 3.61328 16.6702 3.61328 16.67 3.61328C16.6697 3.6133 16.6693 3.6133 16.6691 3.61332C16.6685 3.61332 16.6681 3.61334 16.6679 3.61334C16.6674 3.61334 16.6676 3.61334 16.6684 3.61334C16.6701 3.61332 16.6744 3.61328 16.6812 3.61332C16.6948 3.61337 16.7184 3.61364 16.7515 3.6147C16.8176 3.61682 16.9212 3.62202 17.0573 3.6347C17.3297 3.66008 17.7305 3.71521 18.2198 3.83457C19.1979 4.07327 20.5243 4.56735 21.8888 5.59073L22.9128 4.22543C21.3316 3.03935 19.7838 2.45946 18.6243 2.17654C18.0447 2.03511 17.5607 1.96753 17.2156 1.93539C17.0429 1.91932 16.9046 1.91206 16.806 1.9089C16.7566 1.90733 16.7172 1.90679 16.6883 1.90666C16.6738 1.9066 16.662 1.90665 16.6529 1.90674C16.6484 1.90677 16.6445 1.90682 16.6413 1.90687C16.6397 1.90689 16.6383 1.90692 16.637 1.90694C16.6364 1.90696 16.6358 1.90698 16.6353 1.90698C16.635 1.90698 16.6346 1.90699 16.6345 1.90699C16.6342 1.90701 16.6338 1.90701 16.6525 2.76014ZM22.4008 4.90808C21.6012 5.20625 21.6012 5.20618 21.6012 5.20613C21.6012 5.20615 21.6012 5.20613 21.6012 5.20618C21.6012 5.20629 21.6014 5.20651 21.6014 5.20683C21.6017 5.20752 21.6021 5.20866 21.6028 5.21028C21.6039 5.21352 21.6058 5.21866 21.6084 5.22564C21.6135 5.2396 21.6214 5.26097 21.6318 5.28947C21.6524 5.34646 21.6831 5.43194 21.7224 5.54368C21.8011 5.76717 21.9142 6.09551 22.0501 6.51078C22.3221 7.34172 22.6853 8.51855 23.0485 9.89825C23.7781 12.6703 24.4933 16.2092 24.4933 19.3942H26.2C26.2 15.9923 25.4422 12.2881 24.699 9.46386C24.3256 8.04538 23.9523 6.83574 23.6721 5.97971C23.5318 5.55151 23.4147 5.21127 23.3323 4.97705C23.2912 4.85994 23.2586 4.76928 23.236 4.70734C23.2248 4.67637 23.2161 4.65258 23.2101 4.63624C23.207 4.62809 23.2048 4.62179 23.2031 4.61738C23.2022 4.61518 23.2017 4.61344 23.2012 4.6122C23.201 4.61158 23.2007 4.61107 23.2007 4.61069C23.2005 4.61051 23.2005 4.6103 23.2005 4.61022C23.2004 4.61005 23.2004 4.60991 22.4008 4.90808ZM25.3467 19.3942C24.5043 19.258 24.5044 19.2575 24.5044 19.257C24.5044 19.2568 24.5046 19.2565 24.5046 19.2562C24.5046 19.2557 24.5048 19.2551 24.5048 19.2548C24.5049 19.2539 24.5051 19.2533 24.5051 19.2528C24.5053 19.2519 24.5053 19.2519 24.5051 19.2526C24.5049 19.2541 24.5041 19.2589 24.5024 19.2667C24.4993 19.2824 24.4933 19.3101 24.4839 19.348C24.465 19.4241 24.4324 19.5405 24.3804 19.6839C24.2756 19.9725 24.0964 20.3594 23.8018 20.7481C23.2342 21.4974 22.189 22.3241 20.1997 22.3872L20.2536 24.0929C22.7853 24.0128 24.3001 22.9166 25.1622 21.7788C25.5825 21.2239 25.8356 20.6765 25.9846 20.2662C26.0594 20.0603 26.1087 19.8863 26.1403 19.7593C26.1561 19.6958 26.1674 19.6437 26.1753 19.605C26.1792 19.5857 26.1823 19.5697 26.1845 19.5572C26.1855 19.5509 26.1865 19.5456 26.1872 19.5412C26.1877 19.539 26.1881 19.5369 26.1882 19.5352C26.1884 19.5343 26.1886 19.5335 26.1887 19.5326C26.1887 19.5323 26.1889 19.5318 26.1889 19.5316C26.1889 19.5311 26.1891 19.5306 25.3467 19.3942ZM9.57454 12.0971C7.86583 12.0971 6.63479 13.5767 6.63479 15.221H8.34146C8.34146 14.3698 8.95128 13.8038 9.57454 13.8038V12.0971ZM6.63479 15.221C6.63479 16.8711 7.89139 18.3451 9.57454 18.3451V16.6384C8.96654 16.6384 8.34146 16.0668 8.34146 15.221H6.63479ZM9.57454 18.3451C11.2834 18.3451 12.5144 16.8655 12.5144 15.221H10.8078C10.8078 16.0725 10.1979 16.6384 9.57454 16.6384V18.3451ZM12.5143 15.2351C12.5418 13.5663 11.2712 12.0971 9.57454 12.0971V13.8038C10.2099 13.8038 10.8215 14.3802 10.8079 15.207L12.5143 15.2351ZM17.0413 12.0971C15.3325 12.0971 14.1013 13.5766 14.1013 15.221H15.8079C15.8079 14.3699 16.4178 13.8038 17.0413 13.8038V12.0971ZM14.1013 15.221C14.1013 16.8713 15.3583 18.3451 17.0413 18.3451V16.6384C16.4332 16.6384 15.8079 16.0667 15.8079 15.221H14.1013ZM17.0413 18.3451C18.7501 18.3451 19.9811 16.8655 19.9811 15.221H18.2744C18.2744 16.0725 17.6645 16.6384 17.0413 16.6384V18.3451ZM19.9811 15.221C19.9811 13.5767 18.7501 12.0971 17.0413 12.0971V13.8038C17.6646 13.8038 18.2744 14.3698 18.2744 15.221H19.9811ZM6.98191 7.77583C9.44475 6.43266 11.4505 5.80597 13.404 5.805C15.3571 5.80403 17.3597 6.42845 19.8166 7.77497L20.6368 6.27836C18.038 4.85396 15.7466 4.09718 13.4032 4.09834C11.0602 4.0995 8.7671 4.85826 6.16476 6.27749L6.98191 7.77583Z" fill="white"/>
</g>
<defs>
<clipPath id="clip0_2_579">
<rect width="25.6" height="25.6" fill="white" transform="translate(0.599991 0.200073)"/>
</clipPath>
</defs>
</svg>
