<svg width="44" height="44" viewBox="0 0 44 44" fill="none" xmlns="http://www.w3.org/2000/svg">
<rect width="44" height="44" rx="22" fill="#4A5568"/>
<rect x="0.5" y="0.5" width="43" height="43" rx="21.5" stroke="white" stroke-opacity="0.2"/>
<g clip-path="url(#clip0_241_1504)">
<path d="M27.5667 30.1L27.1534 30.5798C27.2736 30.6834 27.4282 30.738 27.5867 30.7329L27.5667 30.1ZM26.2158 27.9312C25.999 27.6567 25.6007 27.6098 25.3262 27.8266C25.0517 28.0433 25.0048 28.4415 25.2216 28.7161L26.2158 27.9312ZM26.7208 27.4126L26.5004 26.8188C26.492 26.822 26.4837 26.8253 26.4754 26.8287L26.7208 27.4126ZM24.5193 28.0656L24.4129 27.4411L24.4026 27.443L24.5193 28.0656ZM20.587 28.0504L20.4669 28.6722L20.4708 28.6729L20.587 28.0504ZM18.3551 27.3975L18.1243 27.9873L18.1249 27.9875L18.3551 27.3975ZM17.2467 26.8814L16.8946 27.4077C16.9085 27.417 16.9227 27.4258 16.9373 27.4339L17.2467 26.8814ZM17.1101 26.8054L17.4617 26.2786C17.4398 26.2639 17.4169 26.2507 17.3933 26.2389L17.1101 26.8054ZM17.0494 26.7599L17.4972 26.312C17.4556 26.2705 17.4084 26.2349 17.357 26.2062L17.0494 26.7599ZM19.7784 28.6856C19.9951 28.411 19.9482 28.0128 19.6736 27.796C19.399 27.5794 19.0008 27.6263 18.7841 27.9009L19.7784 28.6856ZM17.4333 30.1L17.4133 30.7329C17.5745 30.7381 17.7316 30.6815 17.8525 30.5747L17.4333 30.1ZM13.6333 27.2457H13C13 27.2796 13.0027 27.3134 13.0081 27.3469L13.6333 27.2457ZM15.8196 16.4941L15.4396 15.9875C15.3426 16.0602 15.2686 16.1592 15.2262 16.2728L15.8196 16.4941ZM20.0859 14.8999L20.7164 14.8399C20.6859 14.5201 20.4209 14.2738 20.0998 14.2668L20.0859 14.8999ZM19.6073 16.5543C19.6404 16.9025 19.9496 17.1579 20.2978 17.1247C20.646 17.0915 20.9014 16.7824 20.8682 16.4342L19.6073 16.5543ZM24.0733 16.4743C24.0287 16.8212 24.2738 17.1385 24.6208 17.1831C24.9677 17.2277 25.285 16.9825 25.3296 16.6356L24.0733 16.4743ZM24.914 14.9L24.9001 14.2669C24.5869 14.2737 24.3257 14.5086 24.2858 14.8194L24.914 14.9ZM29.1803 16.4942L29.7737 16.2729C29.7313 16.1593 29.6573 16.0603 29.5603 15.9876L29.1803 16.4942ZM31.3667 27.2457L31.9919 27.3469C31.9973 27.3134 32 27.2796 32 27.2457H31.3667ZM21.2094 24.1484L20.5761 24.1379V24.1484H21.2094ZM27.5667 30.1C27.98 29.6202 27.98 29.6202 27.98 29.6202C27.98 29.62 27.98 29.62 27.9799 29.62C27.9797 29.6199 27.9796 29.6198 27.9792 29.6195C27.9787 29.619 27.9778 29.6183 27.9766 29.6171C27.9742 29.6151 27.9704 29.6118 27.9654 29.6075C27.9555 29.599 27.9408 29.5862 27.9218 29.5696C27.8837 29.5366 27.8286 29.4883 27.761 29.4286C27.6254 29.3091 27.4405 29.144 27.2419 28.9616C26.8305 28.584 26.4069 28.1732 26.2158 27.9312L25.2216 28.7161C25.486 29.0509 25.9864 29.5284 26.3851 29.8946C26.5916 30.0843 26.7831 30.2551 26.9229 30.3785C26.993 30.4402 27.0502 30.4902 27.0901 30.5249C27.11 30.5424 27.1256 30.556 27.1364 30.5652C27.1417 30.5698 27.1459 30.5734 27.1488 30.5759C27.1502 30.5771 27.1513 30.578 27.1521 30.5788C27.1525 30.579 27.1527 30.5793 27.153 30.5795C27.1531 30.5795 27.1531 30.5797 27.1532 30.5798C27.1532 30.5798 27.1532 30.5798 27.1534 30.5798C27.1534 30.5798 27.1534 30.5798 27.5667 30.1ZM28.1184 25.988C27.536 26.3715 26.9868 26.6383 26.5004 26.8188L26.9411 28.0064C27.5174 27.7925 28.1525 27.4823 28.8151 27.0459L28.1184 25.988ZM26.4754 26.8287C25.7577 27.1303 25.0755 27.3284 24.4129 27.4412L24.6256 28.6899C25.3901 28.5597 26.1655 28.3328 26.966 27.9965L26.4754 26.8287ZM24.4026 27.443C23.0362 27.6993 21.7805 27.629 20.7032 27.4278L20.4708 28.6729C21.6708 28.897 23.0872 28.9783 24.636 28.688L24.4026 27.443ZM20.707 27.4286C19.8878 27.2704 19.1813 27.0401 18.5854 26.8075L18.1249 27.9875C18.7738 28.2408 19.5552 28.4962 20.4669 28.6722L20.707 27.4286ZM18.586 26.8078C18.2541 26.6779 17.9028 26.5228 17.5561 26.3287L16.9373 27.4339C17.3499 27.6649 17.7577 27.8438 18.1243 27.9873L18.586 26.8078ZM17.5988 26.3549C17.5381 26.3143 17.4806 26.2863 17.4618 26.2769C17.4349 26.2635 17.4467 26.2686 17.4617 26.2786L16.7585 27.3322C16.8191 27.3726 16.8764 27.4004 16.8951 27.4097C16.9218 27.4231 16.9098 27.4179 16.8946 27.4077L17.5988 26.3549ZM17.3933 26.2389C17.4179 26.2511 17.4439 26.2675 17.4691 26.2876C17.4907 26.3048 17.5059 26.3207 17.4972 26.312L16.6016 27.2077C16.6308 27.237 16.7039 27.3104 16.8269 27.3718L17.3933 26.2389ZM17.357 26.2062C17.2316 26.1366 17.1356 26.0782 17.0726 26.0384C17.0411 26.0185 17.0179 26.0033 17.0036 25.9938C16.9964 25.989 16.9914 25.9856 16.9887 25.9838C16.9874 25.9828 16.9866 25.9823 16.9864 25.9822C16.9863 25.982 16.9863 25.982 16.9865 25.9822C16.9866 25.9823 16.9867 25.9824 16.9869 25.9825C16.9869 25.9825 16.987 25.9825 16.9871 25.9827C16.9872 25.9827 16.9872 25.9828 16.9873 25.9828C16.9873 25.9828 16.9874 25.9828 16.9874 25.9828C16.9874 25.9829 16.9875 25.9829 16.6243 26.5017C16.2611 27.0206 16.2612 27.0207 16.2612 27.0207C16.2612 27.0207 16.2613 27.0207 16.2613 27.0207C16.2614 27.0208 16.2614 27.0208 16.2615 27.0208C16.2616 27.021 16.2618 27.0211 16.2619 27.0212C16.2622 27.0215 16.2626 27.0217 16.263 27.022C16.2637 27.0225 16.2647 27.0231 16.2657 27.0239C16.2679 27.0254 16.2706 27.0272 16.274 27.0294C16.2806 27.034 16.2896 27.0402 16.301 27.0477C16.3236 27.0628 16.3555 27.0837 16.3962 27.1094C16.4774 27.1607 16.5939 27.2313 16.7418 27.3136L17.357 26.2062ZM18.7841 27.9009C18.5908 28.1459 18.1645 28.5657 17.7535 28.9508C17.5545 29.1373 17.3693 29.3063 17.2336 29.4288C17.1658 29.4899 17.1106 29.5393 17.0725 29.5733C17.0535 29.5904 17.0387 29.6034 17.0288 29.6123C17.0238 29.6166 17.02 29.62 17.0176 29.6222C17.0163 29.6233 17.0154 29.6241 17.0149 29.6246C17.0146 29.6248 17.0144 29.625 17.0142 29.6251C17.0142 29.6252 17.0141 29.6252 17.0141 29.6252C17.0141 29.6252 17.0141 29.6252 17.0141 29.6252C17.0141 29.6252 17.0141 29.6252 17.4333 30.1C17.8525 30.5747 17.8526 30.5747 17.8526 30.5747C17.8526 30.5746 17.8527 30.5746 17.8527 30.5746C17.8528 30.5745 17.8528 30.5745 17.8529 30.5743C17.8532 30.5742 17.8534 30.574 17.8538 30.5736C17.8546 30.5729 17.8557 30.5719 17.8571 30.5707C17.8599 30.5681 17.8641 30.5645 17.8694 30.5598C17.8801 30.5503 17.8957 30.5365 17.9156 30.5187C17.9554 30.4831 18.0126 30.432 18.0825 30.3689C18.2221 30.2427 18.4134 30.0683 18.6196 29.8751C19.0186 29.5012 19.5163 29.0177 19.7784 28.6856L18.7841 27.9009ZM17.4534 29.467C15.9769 29.4201 15.2012 28.8066 14.7798 28.2505C14.5613 27.962 14.4283 27.6748 14.3506 27.4606C14.3119 27.3542 14.2877 27.2678 14.2737 27.2113C14.2667 27.1832 14.2623 27.1627 14.2599 27.151C14.2587 27.1452 14.2581 27.1417 14.2579 27.1405C14.2578 27.14 14.2578 27.14 14.2579 27.1407C14.258 27.141 14.258 27.1415 14.2581 27.1422C14.2582 27.1424 14.2583 27.1428 14.2583 27.1432C14.2584 27.1434 14.2584 27.1438 14.2584 27.1438C14.2585 27.1442 14.2585 27.1446 13.6333 27.2457C13.0081 27.3469 13.0082 27.3472 13.0083 27.3476C13.0083 27.3478 13.0083 27.3481 13.0084 27.3484C13.0085 27.349 13.0086 27.3497 13.0087 27.3503C13.0089 27.3516 13.0092 27.3531 13.0094 27.3547C13.01 27.358 13.0107 27.3619 13.0115 27.3666C13.0132 27.3759 13.0155 27.3878 13.0184 27.4021C13.0242 27.4308 13.0326 27.4695 13.0443 27.5166C13.0677 27.6108 13.1044 27.74 13.1599 27.8928C13.2704 28.1972 13.4583 28.6037 13.7702 29.0154C14.41 29.8599 15.5343 30.6735 17.4133 30.7329L17.4534 29.467ZM14.2667 27.2457C14.2667 24.8818 14.7975 22.2552 15.339 20.1978C15.6084 19.1738 15.878 18.3003 16.0799 17.6836C16.1808 17.3754 16.2647 17.1317 16.3231 16.9658C16.3523 16.8829 16.3751 16.8195 16.3904 16.7772C16.3981 16.756 16.4039 16.7402 16.4077 16.7298C16.4096 16.7246 16.411 16.7208 16.4119 16.7184C16.4124 16.7172 16.4127 16.7163 16.4129 16.7158C16.413 16.7156 16.413 16.7154 16.413 16.7154C16.4131 16.7153 16.4131 16.7153 16.4131 16.7153C16.4131 16.7153 16.413 16.7154 15.8196 16.4941C15.2262 16.2728 15.2262 16.2729 15.2261 16.273C15.2261 16.2731 15.226 16.2733 15.226 16.2734C15.2259 16.2737 15.2257 16.2741 15.2256 16.2745C15.2252 16.2755 15.2247 16.2767 15.2241 16.2784C15.2229 16.2816 15.2212 16.2863 15.219 16.2924C15.2145 16.3045 15.208 16.3222 15.1997 16.3451C15.183 16.3911 15.1589 16.4584 15.1283 16.5453C15.0671 16.7192 14.9802 16.9717 14.8761 17.2895C14.6681 17.9248 14.3911 18.8226 14.114 19.8754C13.5623 21.9716 13 24.7208 13 27.2457H14.2667ZM16.1996 17.0008C17.2123 16.2413 18.1967 15.8746 18.9228 15.6974C19.2858 15.6088 19.5833 15.5679 19.7855 15.549C19.8865 15.5396 19.9634 15.5358 20.0125 15.5342C20.0371 15.5334 20.0546 15.5332 20.0647 15.5332C20.0697 15.5331 20.0729 15.5331 20.0741 15.5332C20.0748 15.5332 20.0749 15.5332 20.0746 15.5332C20.0744 15.5332 20.0741 15.5332 20.0737 15.5331C20.0735 15.5331 20.0732 15.5331 20.0729 15.5331C20.0728 15.5331 20.0726 15.5331 20.0725 15.5331C20.0723 15.5331 20.072 15.5331 20.0859 14.8999C20.0998 14.2668 20.0995 14.2667 20.0992 14.2667C20.0991 14.2667 20.0989 14.2667 20.0987 14.2667C20.0983 14.2667 20.0978 14.2667 20.0974 14.2667C20.0964 14.2667 20.0954 14.2667 20.0942 14.2667C20.0919 14.2666 20.089 14.2666 20.0856 14.2666C20.0788 14.2665 20.0701 14.2665 20.0593 14.2665C20.0379 14.2666 20.0086 14.267 19.972 14.2682C19.8988 14.2705 19.7961 14.2759 19.668 14.2878C19.4119 14.3117 19.0527 14.3619 18.6225 14.4668C17.7619 14.6768 16.6132 15.1072 15.4396 15.9875L16.1996 17.0008ZM19.4554 14.96L19.6073 16.5543L20.8682 16.4342L20.7164 14.8399L19.4554 14.96ZM25.3296 16.6356L25.5422 14.9807L24.2858 14.8194L24.0733 16.4743L25.3296 16.6356ZM24.914 14.9C24.9279 15.5332 24.9276 15.5332 24.9274 15.5332C24.9274 15.5332 24.9271 15.5332 24.927 15.5332C24.9267 15.5333 24.9265 15.5333 24.9263 15.5333C24.9258 15.5333 24.9255 15.5333 24.9254 15.5333C24.925 15.5333 24.9252 15.5333 24.9258 15.5333C24.927 15.5333 24.9302 15.5332 24.9352 15.5333C24.9453 15.5333 24.9629 15.5335 24.9874 15.5343C25.0365 15.5359 25.1134 15.5397 25.2144 15.5491C25.4166 15.568 25.714 15.6089 26.0772 15.6975C26.8031 15.8746 27.7876 16.2413 28.8003 17.0009L29.5603 15.9876C28.3867 15.1073 27.238 14.6769 26.3774 14.4669C25.9472 14.3619 25.588 14.3118 25.3319 14.2879C25.2037 14.276 25.1011 14.2706 25.0279 14.2683C24.9913 14.2671 24.962 14.2667 24.9405 14.2666C24.9298 14.2666 24.921 14.2666 24.9143 14.2667C24.9109 14.2667 24.908 14.2667 24.9057 14.2668C24.9045 14.2668 24.9034 14.2668 24.9025 14.2668C24.902 14.2668 24.9016 14.2668 24.9012 14.2668C24.901 14.2668 24.9007 14.2668 24.9006 14.2668C24.9003 14.2669 24.9001 14.2669 24.914 14.9ZM29.1803 16.4942C28.5868 16.7155 28.5868 16.7155 28.5868 16.7154C28.5868 16.7154 28.5868 16.7154 28.5868 16.7155C28.5868 16.7155 28.587 16.7157 28.587 16.7159C28.5872 16.7165 28.5875 16.7173 28.588 16.7185C28.5889 16.7209 28.5903 16.7247 28.5922 16.7299C28.596 16.7403 28.6018 16.7561 28.6095 16.7773C28.6248 16.8196 28.6476 16.883 28.6768 16.966C28.7352 17.1318 28.8191 17.3755 28.92 17.6837C29.1219 18.3004 29.3914 19.1739 29.661 20.1979C30.2025 22.2553 30.7333 24.8818 30.7333 27.2457H32C32 24.7208 31.4376 21.9716 30.886 19.8755C30.6088 18.8227 30.3318 17.9249 30.1238 17.2896C30.0197 16.9718 29.9328 16.7192 29.8716 16.5454C29.8411 16.4585 29.8169 16.3912 29.8002 16.3452C29.7918 16.3222 29.7854 16.3046 29.7809 16.2925C29.7786 16.2864 29.777 16.2817 29.7757 16.2785C29.7751 16.2768 29.7747 16.2755 29.7743 16.2746C29.7742 16.2742 29.774 16.2738 29.774 16.2735C29.7738 16.2734 29.7738 16.2732 29.7738 16.2731C29.7737 16.273 29.7737 16.2729 29.1803 16.4942ZM31.3667 27.2457C30.7414 27.1446 30.7416 27.1442 30.7416 27.1438C30.7416 27.1437 30.7417 27.1434 30.7417 27.1432C30.7417 27.1428 30.7418 27.1424 30.7418 27.1422C30.7419 27.1415 30.7421 27.141 30.7421 27.1407C30.7422 27.14 30.7422 27.14 30.7421 27.1405C30.7419 27.1417 30.7413 27.1452 30.74 27.151C30.7378 27.1627 30.7333 27.1832 30.7264 27.2113C30.7123 27.2678 30.6881 27.3542 30.6495 27.4606C30.5717 27.6748 30.4387 27.962 30.2201 28.2505C29.7988 28.8066 29.0231 29.4201 27.5467 29.467L27.5867 30.7329C29.4657 30.6735 30.5899 29.8599 31.2297 29.0154C31.5417 28.6037 31.7296 28.1973 31.8401 27.8928C31.8956 27.74 31.9322 27.6108 31.9557 27.5166C31.9674 27.4695 31.9758 27.4308 31.9816 27.4021C31.9845 27.3878 31.9868 27.3759 31.9885 27.3666C31.9892 27.3619 31.99 27.358 31.9905 27.3547C31.9909 27.3531 31.9911 27.3516 31.9913 27.3503C31.9914 27.3497 31.9915 27.349 31.9916 27.3484C31.9916 27.3481 31.9918 27.3478 31.9918 27.3476C31.9918 27.3472 31.9919 27.3469 31.3667 27.2457ZM19.6608 21.8298C18.3926 21.8298 17.4789 22.928 17.4789 24.1484H18.7456C18.7456 23.5166 19.1982 23.0965 19.6608 23.0965V21.8298ZM17.4789 24.1484C17.4789 25.373 18.4116 26.467 19.6608 26.467V25.2003C19.2095 25.2003 18.7456 24.7761 18.7456 24.1484H17.4789ZM19.6608 26.467C20.9291 26.467 21.8427 25.3689 21.8427 24.1484H20.5761C20.5761 24.7803 20.1235 25.2003 19.6608 25.2003V26.467ZM21.8427 24.1588C21.8631 22.9202 20.92 21.8298 19.6608 21.8298V23.0965C20.1323 23.0965 20.5863 23.5243 20.5761 24.1379L21.8427 24.1588ZM25.2025 21.8298C23.9343 21.8298 23.0205 22.9279 23.0205 24.1484H24.2871C24.2871 23.5167 24.7398 23.0965 25.2025 23.0965V21.8298ZM23.0205 24.1484C23.0205 25.3731 23.9534 26.467 25.2025 26.467V25.2003C24.7512 25.2003 24.2871 24.776 24.2871 24.1484H23.0205ZM25.2025 26.467C26.4707 26.467 27.3844 25.3688 27.3844 24.1484H26.1177C26.1177 24.7803 25.6651 25.2003 25.2025 25.2003V26.467ZM27.3844 24.1484C27.3844 22.928 26.4707 21.8298 25.2025 21.8298V23.0965C25.6651 23.0965 26.1177 23.5166 26.1177 24.1484H27.3844ZM17.7366 18.6226C19.5645 17.6257 21.0531 17.1606 22.503 17.1599C23.9525 17.1592 25.4389 17.6226 27.2623 18.622L27.871 17.5112C25.9423 16.4541 24.2416 15.8924 22.5023 15.8932C20.7635 15.8941 19.0615 16.4572 17.1301 17.5106L17.7366 18.6226Z" fill="white"/>
</g>
<defs>
<clipPath id="clip0_241_1504">
<rect width="19" height="19" fill="white" transform="translate(13 13)"/>
</clipPath>
</defs>
</svg>
