<svg width="34" height="34" viewBox="0 0 34 34" fill="none" xmlns="http://www.w3.org/2000/svg">
<g opacity="0.05">
<path fill-rule="evenodd" clip-rule="evenodd" d="M22.5374 2.83331C26.9914 2.83331 29.9834 5.8834 29.9834 10.4224V23.4501C29.9834 28.0287 27.0835 31.0066 22.5955 31.0349L11.6971 31.0391C7.24305 31.0391 4.24963 27.9891 4.24963 23.4501V10.4224C4.24963 5.84231 7.14955 2.8659 11.6376 2.83898L22.536 2.83331H22.5374ZM22.5374 4.95831L11.6446 4.96398C8.34663 4.98381 6.37463 7.02381 6.37463 10.4224V23.4501C6.37463 26.8713 8.36505 28.9141 11.6956 28.9141L22.5884 28.9099C25.8864 28.8901 27.8584 26.8472 27.8584 23.4501V10.4224C27.8584 7.00115 25.8694 4.95831 22.5374 4.95831ZM22.2641 21.9211C22.8506 21.9211 23.3266 22.3971 23.3266 22.9836C23.3266 23.5701 22.8506 24.0461 22.2641 24.0461H12.0358C11.4493 24.0461 10.9733 23.5701 10.9733 22.9836C10.9733 22.3971 11.4493 21.9211 12.0358 21.9211H22.2641ZM22.2641 15.9902C22.8506 15.9902 23.3266 16.4662 23.3266 17.0527C23.3266 17.6392 22.8506 18.1152 22.2641 18.1152H12.0358C11.4493 18.1152 10.9733 17.6392 10.9733 17.0527C10.9733 16.4662 11.4493 15.9902 12.0358 15.9902H22.2641ZM15.9383 10.073C16.5248 10.073 17.0008 10.549 17.0008 11.1355C17.0008 11.722 16.5248 12.198 15.9383 12.198H12.0354C11.4489 12.198 10.9729 11.722 10.9729 11.1355C10.9729 10.549 11.4489 10.073 12.0354 10.073H15.9383Z" fill="white"/>
</g>
</svg>
