<svg width="22" height="22" viewBox="0 0 22 22" fill="none" xmlns="http://www.w3.org/2000/svg">
<path fill-rule="evenodd" clip-rule="evenodd" d="M14.583 1.83331C17.465 1.83331 19.401 3.8069 19.401 6.7439V15.1736C19.401 18.1362 17.5246 20.0631 14.6206 20.0814L7.56867 20.0841C4.68667 20.0841 2.74976 18.1106 2.74976 15.1736V6.7439C2.74976 3.78031 4.62617 1.8544 7.53017 1.83698L14.5821 1.83331H14.583ZM14.583 3.20831L7.53476 3.21198C5.40076 3.22481 4.12476 4.54481 4.12476 6.7439V15.1736C4.12476 17.3873 5.41267 18.7091 7.56776 18.7091L14.616 18.7064C16.75 18.6936 18.026 17.3717 18.026 15.1736V6.7439C18.026 4.53015 16.739 3.20831 14.583 3.20831ZM14.4062 14.1842C14.7857 14.1842 15.0937 14.4922 15.0937 14.8717C15.0937 15.2512 14.7857 15.5592 14.4062 15.5592H7.78785C7.40835 15.5592 7.10035 15.2512 7.10035 14.8717C7.10035 14.4922 7.40835 14.1842 7.78785 14.1842H14.4062ZM14.4062 10.3466C14.7857 10.3466 15.0937 10.6546 15.0937 11.0341C15.0937 11.4136 14.7857 11.7216 14.4062 11.7216H7.78785C7.40835 11.7216 7.10035 11.4136 7.10035 11.0341C7.10035 10.6546 7.40835 10.3466 7.78785 10.3466H14.4062ZM10.313 6.51785C10.6925 6.51785 11.0005 6.82585 11.0005 7.20535C11.0005 7.58485 10.6925 7.89285 10.313 7.89285H7.78757C7.40807 7.89285 7.10007 7.58485 7.10007 7.20535C7.10007 6.82585 7.40807 6.51785 7.78757 6.51785H10.313Z" fill="#568DDF"/>
</svg>
