<svg width="64" height="64" viewBox="0 0 64 64" fill="none" xmlns="http://www.w3.org/2000/svg">
<g filter="url(#filter0_d_241_1533)">
<rect x="10" y="5" width="44" height="44" rx="22" fill="url(#paint0_linear_241_1533)"/>
</g>
<g clip-path="url(#clip0_241_1533)">
<path d="M29.25 20.5833H27.4167C26.9305 20.5833 26.4642 20.7765 26.1203 21.1203C25.7765 21.4641 25.5834 21.9304 25.5834 22.4166V33.4166C25.5834 33.9029 25.7765 34.3692 26.1203 34.713C26.4642 35.0568 26.9305 35.25 27.4167 35.25H36.5834C37.0696 35.25 37.5359 35.0568 37.8797 34.713C38.2236 34.3692 38.4167 33.9029 38.4167 33.4166V22.4166C38.4167 21.9304 38.2236 21.4641 37.8797 21.1203C37.5359 20.7765 37.0696 20.5833 36.5834 20.5833H34.75" stroke="white" stroke-width="1.22222" stroke-linecap="round" stroke-linejoin="round"/>
<path d="M32.9167 18.75H31.0833C30.0708 18.75 29.25 19.5708 29.25 20.5833C29.25 21.5959 30.0708 22.4167 31.0833 22.4167H32.9167C33.9292 22.4167 34.75 21.5959 34.75 20.5833C34.75 19.5708 33.9292 18.75 32.9167 18.75Z" stroke="white" stroke-width="1.22222" stroke-linecap="round" stroke-linejoin="round"/>
<path d="M29.25 28.8333H29.2592" stroke="white" stroke-width="1.22222" stroke-linecap="round" stroke-linejoin="round"/>
<path d="M29.25 31.5833H29.2592" stroke="white" stroke-width="1.22222" stroke-linecap="round" stroke-linejoin="round"/>
<path d="M32 30.6666L32.9167 31.5833L35.6667 28.8333" stroke="white" stroke-width="1.22222" stroke-linecap="round" stroke-linejoin="round"/>
</g>
<defs>
<filter id="filter0_d_241_1533" x="0.568421" y="0.284211" width="62.8632" height="62.8632" filterUnits="userSpaceOnUse" color-interpolation-filters="sRGB">
<feFlood flood-opacity="0" result="BackgroundImageFix"/>
<feColorMatrix in="SourceAlpha" type="matrix" values="0 0 0 0 0 0 0 0 0 0 0 0 0 0 0 0 0 0 127 0" result="hardAlpha"/>
<feOffset dy="4.71579"/>
<feGaussianBlur stdDeviation="4.71579"/>
<feComposite in2="hardAlpha" operator="out"/>
<feColorMatrix type="matrix" values="0 0 0 0 0.379145 0 0 0 0 0.679167 0 0 0 0 0.19526 0 0 0 0.13 0"/>
<feBlend mode="normal" in2="BackgroundImageFix" result="effect1_dropShadow_241_1533"/>
<feBlend mode="normal" in="SourceGraphic" in2="effect1_dropShadow_241_1533" result="shape"/>
</filter>
<linearGradient id="paint0_linear_241_1533" x1="50.7193" y1="11.5614" x2="14.4386" y2="46.1053" gradientUnits="userSpaceOnUse">
<stop stop-color="#97D857"/>
<stop offset="1" stop-color="#61AD32"/>
</linearGradient>
<clipPath id="clip0_241_1533">
<rect width="22" height="22" fill="white" transform="translate(21 16)"/>
</clipPath>
</defs>
</svg>
