<svg width="34" height="34" viewBox="0 0 34 34" fill="none" xmlns="http://www.w3.org/2000/svg">
<g opacity="0.05">
<path d="M8.11111 22.3333H25.8889V29.4445C25.8889 30.3874 25.5143 31.2918 24.8475 31.9586C24.1807 32.6254 23.2763 33 22.3333 33H11.6667C10.7237 33 9.81931 32.6254 9.15251 31.9586C8.48572 31.2918 8.11111 30.3874 8.11111 29.4445V22.3333Z" stroke="white" stroke-width="1.33333" stroke-linecap="round" stroke-linejoin="round"/>
<path d="M17 11.6667C17 8.83769 15.8762 6.12458 13.8758 4.12419C11.8754 2.12381 9.16231 1 6.33333 1H1V4.55556C1 7.38453 2.12381 10.0976 4.12419 12.098C6.12458 14.0984 8.83769 15.2222 11.6667 15.2222H17" stroke="white" stroke-width="1.33333" stroke-linecap="round" stroke-linejoin="round"/>
<path d="M17 15.2222C17 12.3932 18.1238 9.68009 20.1242 7.67971C22.1246 5.67932 24.8377 4.55551 27.6667 4.55551H33V6.33329C33 9.16227 31.8762 11.8754 29.8758 13.8758C27.8754 15.8762 25.1623 17 22.3333 17H17" stroke="white" stroke-width="1.33333" stroke-linecap="round" stroke-linejoin="round"/>
<path d="M17 22.3333V11.6667" stroke="white" stroke-width="1.33333" stroke-linecap="round" stroke-linejoin="round"/>
</g>
</svg>
