<svg width="20" height="20" viewBox="0 0 20 20" fill="none" xmlns="http://www.w3.org/2000/svg">
<path d="M5.00001 13H15V17C15 17.5304 14.7893 18.0391 14.4142 18.4142C14.0391 18.7893 13.5304 19 13 19H7.00001C6.46957 19 5.96087 18.7893 5.58579 18.4142C5.21072 18.0391 5.00001 17.5304 5.00001 17V13Z" stroke="#F7BD28" stroke-width="1.33333" stroke-linecap="round" stroke-linejoin="round"/>
<path d="M10 7C10 5.4087 9.36786 3.88258 8.24264 2.75736C7.11742 1.63214 5.5913 1 4 1H1V3C1 4.5913 1.63214 6.11742 2.75736 7.24264C3.88258 8.36786 5.4087 9 7 9H10" stroke="#F7BD28" stroke-width="1.33333" stroke-linecap="round" stroke-linejoin="round"/>
<path d="M10 8.99997C10 7.40867 10.6321 5.88255 11.7574 4.75733C12.8826 3.63211 14.4087 2.99997 16 2.99997H19V3.99997C19 5.59127 18.3679 7.11739 17.2426 8.24261C16.1174 9.36783 14.5913 9.99997 13 9.99997H10" stroke="#F7BD28" stroke-width="1.33333" stroke-linecap="round" stroke-linejoin="round"/>
<path d="M10 13V7" stroke="#F7BD28" stroke-width="1.33333" stroke-linecap="round" stroke-linejoin="round"/>
</svg>
