<svg width="62" height="62" viewBox="0 0 62 62" fill="none" xmlns="http://www.w3.org/2000/svg">
<g clip-path="url(#clip0_2_343)">
<path d="M12.9167 23.25C13.6018 23.25 14.2589 23.5222 14.7434 24.0066C15.2278 24.4911 15.5 25.1482 15.5 25.8333C19.5588 25.8274 23.5005 27.1929 26.6858 29.7083H32.2917C35.7352 29.7083 38.8275 31.2067 40.9562 33.5833H49.0833C51.5252 33.5827 53.9173 34.2742 55.9822 35.5778C58.0471 36.8814 59.7001 38.7435 60.7497 40.9484C54.6401 49.011 44.7485 54.25 33.5833 54.25C26.3758 54.25 20.2792 52.6922 15.345 49.9668C15.1643 50.4656 14.8341 50.8964 14.3995 51.2006C13.965 51.5048 13.4471 51.6676 12.9167 51.6667H5.16666C4.48152 51.6667 3.82444 51.3945 3.33997 50.91C2.8555 50.4256 2.58333 49.7685 2.58333 49.0833V25.8333C2.58333 25.1482 2.8555 24.4911 3.33997 24.0066C3.82444 23.5222 4.48152 23.25 5.16666 23.25H12.9167ZM15.5026 31L15.5 43.9735L15.6162 44.0562C20.2533 47.3112 26.2932 49.0833 33.5833 49.0833C41.3437 49.0833 48.5641 46.097 53.8237 40.9975L54.1673 40.6539L53.8573 40.3956C52.6375 39.4402 51.1588 38.8732 49.6129 38.7681L49.0833 38.75H43.6299C43.8159 39.5818 43.9167 40.4447 43.9167 41.3333V43.9167H20.6667V38.75L38.2075 38.7474L38.1197 38.5459C37.6246 37.5114 36.863 36.6273 35.9133 35.9844C34.9635 35.3416 33.8597 34.9631 32.7153 34.8879L32.2917 34.875H24.7225C23.5221 33.6472 22.0882 32.6719 20.5053 32.0064C18.9223 31.341 17.2223 30.9988 15.5052 31H15.5026ZM10.3333 28.4167H7.74999V46.5H10.3333V28.4167ZM46.5 12.9167C48.5554 12.9167 50.5267 13.7332 51.9801 15.1866C53.4335 16.64 54.25 18.6112 54.25 20.6667C54.25 22.7221 53.4335 24.6933 51.9801 26.1467C50.5267 27.6002 48.5554 28.4167 46.5 28.4167C44.4446 28.4167 42.4733 27.6002 41.0199 26.1467C39.5665 24.6933 38.75 22.7221 38.75 20.6667C38.75 18.6112 39.5665 16.64 41.0199 15.1866C42.4733 13.7332 44.4446 12.9167 46.5 12.9167ZM46.5 18.0833C45.8148 18.0833 45.1578 18.3555 44.6733 18.84C44.1888 19.3244 43.9167 19.9815 43.9167 20.6667C43.9167 21.3518 44.1888 22.0089 44.6733 22.4934C45.1578 22.9778 45.8148 23.25 46.5 23.25C47.1851 23.25 47.8422 22.9778 48.3267 22.4934C48.8112 22.0089 49.0833 21.3518 49.0833 20.6667C49.0833 19.9815 48.8112 19.3244 48.3267 18.84C47.8422 18.3555 47.1851 18.0833 46.5 18.0833ZM28.4167 5.16667C30.4721 5.16667 32.4433 5.98319 33.8967 7.43659C35.3501 8.89 36.1667 10.8612 36.1667 12.9167C36.1667 14.9721 35.3501 16.9433 33.8967 18.3967C32.4433 19.8502 30.4721 20.6667 28.4167 20.6667C26.3612 20.6667 24.39 19.8502 22.9366 18.3967C21.4832 16.9433 20.6667 14.9721 20.6667 12.9167C20.6667 10.8612 21.4832 8.89 22.9366 7.43659C24.39 5.98319 26.3612 5.16667 28.4167 5.16667ZM28.4167 10.3333C27.7315 10.3333 27.0744 10.6055 26.59 11.09C26.1055 11.5744 25.8333 12.2315 25.8333 12.9167C25.8333 13.6018 26.1055 14.2589 26.59 14.7434C27.0744 15.2278 27.7315 15.5 28.4167 15.5C29.1018 15.5 29.7589 15.2278 30.2434 14.7434C30.7278 14.2589 31 13.6018 31 12.9167C31 12.2315 30.7278 11.5744 30.2434 11.09C29.7589 10.6055 29.1018 10.3333 28.4167 10.3333Z" fill="white" fill-opacity="0.05"/>
</g>
<defs>
<clipPath id="clip0_2_343">
<rect width="62" height="62" fill="white"/>
</clipPath>
</defs>
</svg>
