<svg width="32" height="32" viewBox="0 0 32 32" fill="none" xmlns="http://www.w3.org/2000/svg">
<path d="M5.33333 8.33337C5.33333 6.67652 6.67647 5.33337 8.33333 5.33337H19.6667C21.3235 5.33337 22.6667 6.67652 22.6667 8.33337V18.6667H27.3333V23C27.3333 25.3932 25.3932 27.3334 23 27.3334H9.66666C7.27342 27.3334 5.33333 25.3932 5.33333 23V8.33337ZM22.6667 20.6667V25.3334H23C24.2887 25.3334 25.3333 24.2887 25.3333 23V20.6667H22.6667ZM20.6667 25.3334V8.33337C20.6667 7.78109 20.2189 7.33337 19.6667 7.33337H8.33333C7.78105 7.33337 7.33333 7.78109 7.33333 8.33337V23C7.33333 24.2887 8.378 25.3334 9.66666 25.3334H20.6667ZM9.33334 11.6667C9.33334 11.1144 9.78106 10.6667 10.3333 10.6667H17.6667C18.2189 10.6667 18.6667 11.1144 18.6667 11.6667C18.6667 12.219 18.2189 12.6667 17.6667 12.6667H10.3333C9.78106 12.6667 9.33334 12.219 9.33334 11.6667ZM9.33334 16.3334C9.33334 15.7811 9.78106 15.3334 10.3333 15.3334H17.6667C18.2189 15.3334 18.6667 15.7811 18.6667 16.3334C18.6667 16.8856 18.2189 17.3334 17.6667 17.3334H10.3333C9.78106 17.3334 9.33334 16.8856 9.33334 16.3334ZM9.33334 21C9.33334 20.4478 9.78106 20 10.3333 20H13.6667C14.2189 20 14.6667 20.4478 14.6667 21C14.6667 21.5523 14.2189 22 13.6667 22H10.3333C9.78106 22 9.33334 21.5523 9.33334 21Z" fill="#4A5568"/>
</svg>
