<svg width="44" height="44" viewBox="0 0 44 44" fill="none" xmlns="http://www.w3.org/2000/svg">
<rect width="44" height="44" rx="22" fill="#4A5568"/>
<rect x="0.5" y="0.5" width="43" height="43" rx="21.5" stroke="white" stroke-opacity="0.2"/>
<g clip-path="url(#clip0_241_1506)">
<path d="M22 19.5C21.3369 19.5 20.701 19.7634 20.2322 20.2322C19.7634 20.7011 19.5 21.337 19.5 22C19.5 22.663 19.7634 23.2989 20.2322 23.7678C20.701 24.2366 21.3369 24.5 22 24.5C22.663 24.5 23.2989 24.2366 23.7677 23.7678C24.2366 23.2989 24.5 22.663 24.5 22C24.5 21.337 24.2366 20.7011 23.7677 20.2322C23.2989 19.7634 22.663 19.5 22 19.5ZM22 17.8333C23.105 17.8333 24.1648 18.2723 24.9462 19.0537C25.7276 19.8351 26.1666 20.8949 26.1666 22C26.1666 23.1051 25.7276 24.1649 24.9462 24.9463C24.1648 25.7277 23.105 26.1667 22 26.1667C20.8949 26.1667 19.8351 25.7277 19.0537 24.9463C18.2723 24.1649 17.8333 23.1051 17.8333 22C17.8333 20.8949 18.2723 19.8351 19.0537 19.0537C19.8351 18.2723 20.8949 17.8333 22 17.8333ZM27.4166 17.625C27.4166 17.9013 27.3069 18.1662 27.1115 18.3616C26.9162 18.5569 26.6512 18.6667 26.375 18.6667C26.0987 18.6667 25.8337 18.5569 25.6384 18.3616C25.443 18.1662 25.3333 17.9013 25.3333 17.625C25.3333 17.3487 25.443 17.0838 25.6384 16.8884C25.8337 16.6931 26.0987 16.5833 26.375 16.5833C26.6512 16.5833 26.9162 16.6931 27.1115 16.8884C27.3069 17.0838 27.4166 17.3487 27.4166 17.625ZM22 15.3333C19.9383 15.3333 19.6016 15.3392 18.6425 15.3817C17.9891 15.4125 17.5508 15.5 17.1441 15.6583C16.7825 15.7983 16.5216 15.9658 16.2441 16.2442C15.9833 16.4962 15.7828 16.8038 15.6575 17.1442C15.4991 17.5525 15.4116 17.99 15.3816 18.6425C15.3383 19.5625 15.3333 19.8842 15.3333 22C15.3333 24.0617 15.3391 24.3983 15.3816 25.3575C15.4125 26.01 15.5 26.4492 15.6575 26.855C15.7991 27.2175 15.9658 27.4783 16.2425 27.755C16.5233 28.035 16.7841 28.2025 17.1425 28.3408C17.5541 28.5 17.9925 28.5883 18.6425 28.6183C19.5625 28.6617 19.8841 28.6667 22 28.6667C24.0616 28.6667 24.3983 28.6608 25.3575 28.6183C26.0091 28.5875 26.4483 28.5 26.855 28.3425C27.2158 28.2017 27.4783 28.0342 27.755 27.7575C28.0358 27.4767 28.2033 27.2158 28.3416 26.8575C28.5 26.4467 28.5883 26.0075 28.6183 25.3575C28.6616 24.4375 28.6666 24.1158 28.6666 22C28.6666 19.9383 28.6608 19.6017 28.6183 18.6425C28.5875 17.9908 28.5 17.5508 28.3416 17.1442C28.216 16.8042 28.0159 16.4966 27.7558 16.2442C27.5039 15.9832 27.1962 15.7826 26.8558 15.6575C26.4475 15.4992 26.0091 15.4117 25.3575 15.3817C24.4375 15.3383 24.1158 15.3333 22 15.3333ZM22 13.6667C24.2641 13.6667 24.5466 13.675 25.435 13.7167C26.3225 13.7583 26.9266 13.8975 27.4583 14.1042C28.0083 14.3158 28.4716 14.6025 28.935 15.065C29.3587 15.4816 29.6866 15.9855 29.8958 16.5417C30.1016 17.0725 30.2416 17.6775 30.2833 18.565C30.3225 19.4533 30.3333 19.7358 30.3333 22C30.3333 24.2642 30.325 24.5467 30.2833 25.435C30.2416 26.3225 30.1016 26.9267 29.8958 27.4583C29.6872 28.0148 29.3592 28.5188 28.935 28.935C28.5183 29.3586 28.0144 29.6865 27.4583 29.8958C26.9275 30.1017 26.3225 30.2417 25.435 30.2833C24.5466 30.3225 24.2641 30.3333 22 30.3333C19.7358 30.3333 19.4533 30.325 18.565 30.2833C17.6775 30.2417 17.0733 30.1017 16.5416 29.8958C15.9852 29.6871 15.4812 29.3591 15.065 28.935C14.6411 28.5185 14.3132 28.0146 14.1041 27.4583C13.8975 26.9275 13.7583 26.3225 13.7166 25.435C13.6775 24.5467 13.6666 24.2642 13.6666 22C13.6666 19.7358 13.675 19.4533 13.7166 18.565C13.7583 17.6767 13.8975 17.0733 14.1041 16.5417C14.3127 15.9852 14.6406 15.4811 15.065 15.065C15.4814 14.641 15.9853 14.3131 16.5416 14.1042C17.0733 13.8975 17.6766 13.7583 18.565 13.7167C19.4533 13.6775 19.7358 13.6667 22 13.6667Z" fill="white"/>
</g>
<defs>
<clipPath id="clip0_241_1506">
<rect width="20" height="20" fill="white" transform="translate(12 12)"/>
</clipPath>
</defs>
</svg>
