<svg width="32" height="32" viewBox="0 0 32 32" fill="none" xmlns="http://www.w3.org/2000/svg">
<g opacity="0.1" clip-path="url(#clip0_232_541)">
<path d="M32 0H0V32H32V0Z" fill="white" fill-opacity="0.01"/>
<path d="M29.3333 2.6667C29.3333 2.6667 22.3933 1.46737 20 5.33337C18.2185 8.21113 20.6667 11.3334 20.6667 11.3334M29.3333 2.6667C29.3333 2.6667 30.5327 9.60679 26.6667 12.0001C23.7889 13.7815 20.6667 11.3334 20.6667 11.3334M29.3333 2.6667L20.6667 11.3334M20.6667 11.3334L18.6667 13.3334" stroke="white" stroke-width="0.979592" stroke-linecap="round" stroke-linejoin="round"/>
<path d="M29.3333 29.3333C29.3333 29.3333 22.3933 30.5326 20 26.6666C18.2185 23.7889 20.6667 20.6666 20.6667 20.6666M29.3333 29.3333C29.3333 29.3333 30.5327 22.3932 26.6667 19.9999C23.7889 18.2185 20.6667 20.6666 20.6667 20.6666M29.3333 29.3333L20.6667 20.6666M20.6667 20.6666L18.6667 18.6666" stroke="white" stroke-width="0.979592" stroke-linecap="round" stroke-linejoin="round"/>
<path d="M2.84245 2.6667C2.84245 2.6667 9.78254 1.46737 12.1758 5.33337C13.9573 8.21113 11.5091 11.3334 11.5091 11.3334M2.84245 2.6667C2.84245 2.6667 1.64312 9.60679 5.50911 12.0001C8.38687 13.7815 11.5091 11.3334 11.5091 11.3334M2.84245 2.6667L11.5091 11.3334M11.5091 11.3334L13.5091 13.3334" stroke="white" stroke-width="0.979592" stroke-linecap="round" stroke-linejoin="round"/>
<path d="M2.84245 29.3333C2.84245 29.3333 9.78254 30.5326 12.1758 26.6666C13.9573 23.7889 11.5091 20.6666 11.5091 20.6666M2.84245 29.3333C2.84245 29.3333 1.64312 22.3932 5.50911 19.9999C8.38687 18.2185 11.5091 20.6666 11.5091 20.6666M2.84245 29.3333L11.5091 20.6666M11.5091 20.6666L13.5091 18.6666" stroke="white" stroke-width="0.979592" stroke-linecap="round" stroke-linejoin="round"/>
</g>
<defs>
<clipPath id="clip0_232_541">
<rect width="32" height="32" fill="white"/>
</clipPath>
</defs>
</svg>
