<svg width="20" height="20" viewBox="0 0 20 20" fill="none" xmlns="http://www.w3.org/2000/svg">
<g clip-path="url(#clip0_232_535)">
<path d="M20 0H0V20H20V0Z" fill="white" fill-opacity="0.01"/>
<path d="M18.3333 1.66668C18.3333 1.66668 13.9958 0.917104 12.5 3.33335C11.3866 5.13195 12.9167 7.08337 12.9167 7.08337M18.3333 1.66668C18.3333 1.66668 19.0829 6.00424 16.6667 7.50003C14.8681 8.61345 12.9167 7.08337 12.9167 7.08337M18.3333 1.66668L12.9167 7.08337M12.9167 7.08337L11.6667 8.33337" stroke="#8EAD12" stroke-width="0.979592" stroke-linecap="round" stroke-linejoin="round"/>
<path d="M18.3333 18.3333C18.3333 18.3333 13.9958 19.0829 12.5 16.6666C11.3866 14.868 12.9167 12.9166 12.9167 12.9166M18.3333 18.3333C18.3333 18.3333 19.0829 13.9958 16.6667 12.5C14.8681 11.3865 12.9167 12.9166 12.9167 12.9166M18.3333 18.3333L12.9167 12.9166M12.9167 12.9166L11.6667 11.6666" stroke="#8EAD12" stroke-width="0.979592" stroke-linecap="round" stroke-linejoin="round"/>
<path d="M1.77653 1.66668C1.77653 1.66668 6.11409 0.917104 7.60988 3.33335C8.72329 5.13195 7.19321 7.08337 7.19321 7.08337M1.77653 1.66668C1.77653 1.66668 1.02695 6.00424 3.4432 7.50003C5.24179 8.61345 7.19321 7.08337 7.19321 7.08337M1.77653 1.66668L7.19321 7.08337M7.19321 7.08337L8.44321 8.33337" stroke="#8EAD12" stroke-width="0.979592" stroke-linecap="round" stroke-linejoin="round"/>
<path d="M1.77653 18.3333C1.77653 18.3333 6.11409 19.0829 7.60988 16.6666C8.72329 14.868 7.19321 12.9166 7.19321 12.9166M1.77653 18.3333C1.77653 18.3333 1.02695 13.9958 3.4432 12.5C5.24179 11.3865 7.19321 12.9166 7.19321 12.9166M1.77653 18.3333L7.19321 12.9166M7.19321 12.9166L8.44321 11.6666" stroke="#8EAD12" stroke-width="0.979592" stroke-linecap="round" stroke-linejoin="round"/>
</g>
<defs>
<clipPath id="clip0_232_535">
<rect width="20" height="20" fill="white"/>
</clipPath>
</defs>
</svg>
