<svg width="40" height="40" viewBox="0 0 40 40" fill="none" xmlns="http://www.w3.org/2000/svg">
<path d="M27 9.99999C27 9.55797 27.1756 9.13404 27.4882 8.82148C27.8008 8.50892 28.2247 8.33333 28.6667 8.33333C29.7284 8.33333 30.77 8.54666 31.785 8.95333C32.89 9.395 33.74 10.05 34.5117 10.82C35.2834 11.5933 35.9384 12.4433 36.38 13.5483C36.7867 14.5633 37 15.605 37 16.6667C37 17.7283 36.7867 18.77 36.38 19.785C35.945 20.8767 35.3 21.7183 34.54 22.4833L32.9 24.2883C32.8822 24.3077 32.8638 24.3266 32.845 24.345L27.5117 29.6783C26.74 30.45 25.89 31.105 24.785 31.5483C23.7948 31.9522 22.7361 32.1621 21.6667 32.1667C20.5972 32.1615 19.5385 31.9511 18.5484 31.5467C17.4434 31.105 16.5934 30.45 15.8217 29.68C15.05 28.9067 14.395 28.0567 13.9534 26.9517C13.5332 25.9079 13.3225 24.7917 13.3334 23.6667C13.3334 22.605 13.5467 21.5633 13.9534 20.5483C14.395 19.4433 15.05 18.5933 15.82 17.8217L17.6534 15.9883C17.8081 15.8335 17.9918 15.7106 18.1941 15.6268C18.3963 15.5429 18.613 15.4997 18.832 15.4997C19.0509 15.4996 19.2677 15.5426 19.4699 15.6263C19.6722 15.71 19.856 15.8328 20.0109 15.9875C20.1657 16.1422 20.2886 16.326 20.3724 16.5282C20.4563 16.7304 20.4995 16.9472 20.4995 17.1661C20.4996 17.385 20.4566 17.6018 20.3729 17.8041C20.2892 18.0063 20.1664 18.1901 20.0117 18.345L18.1784 20.1783C17.6167 20.74 17.2717 21.2233 17.0484 21.785C16.8014 22.3818 16.6718 23.0207 16.6667 23.6667C16.6667 24.46 16.795 25.0833 17.0484 25.715C17.2717 26.2767 17.6167 26.76 18.1784 27.3217C18.74 27.8833 19.2234 28.2283 19.785 28.4517C20.4367 28.7133 21.0617 28.8333 21.6667 28.8333C22.2717 28.8333 22.8967 28.7133 23.5484 28.4517C24.11 28.2283 24.5934 27.8833 25.155 27.3217L30.46 22.0167L32.1 20.2117C32.1179 20.1923 32.1362 20.1734 32.155 20.155C32.7167 19.5933 33.0617 19.11 33.285 18.5483C33.5467 17.8967 33.6667 17.2717 33.6667 16.6667C33.6667 16.0617 33.5467 15.4367 33.285 14.785C33.0617 14.2233 32.7167 13.74 32.155 13.1783C31.5934 12.6167 31.11 12.2717 30.5484 12.0467C29.9514 11.8002 29.3125 11.6712 28.6667 11.6667C28.2247 11.6667 27.8008 11.4911 27.4882 11.1785C27.1756 10.8659 27 10.442 27 9.99999ZM18.8334 12.5C18.2284 12.5 17.6034 12.62 16.9517 12.88C16.39 13.105 15.9067 13.45 15.345 14.0133L9.87337 19.4833L8.23337 21.2883L8.17837 21.345C7.61671 21.9067 7.27171 22.39 7.04671 22.9517C6.80026 23.5486 6.67124 24.1875 6.66671 24.8333C6.66671 25.4383 6.78671 26.0633 7.04671 26.715C7.27171 27.2767 7.61671 27.76 8.18004 28.3217C8.74004 28.8833 9.22337 29.2283 9.78504 29.4533C10.4367 29.7133 11.0617 29.8333 11.6667 29.8333C12.1087 29.8333 12.5327 30.0089 12.8452 30.3215C13.1578 30.634 13.3334 31.058 13.3334 31.5C13.3334 31.942 13.1578 32.3659 12.8452 32.6785C12.5327 32.9911 12.1087 33.1667 11.6667 33.1667C10.5973 33.1621 9.53864 32.9522 8.54837 32.5483C7.44337 32.105 6.59337 31.45 5.82171 30.6783C5.05004 29.9067 4.39504 29.0567 3.95337 27.9517C3.54898 26.9615 3.3385 25.9029 3.33337 24.8333C3.33337 23.7717 3.54671 22.73 3.95337 21.715C4.38837 20.6233 5.03337 19.7817 5.79337 19.0167L7.43337 17.2117L7.48837 17.155L12.9884 11.655C13.76 10.8833 14.61 10.2283 15.715 9.78666C16.7052 9.38226 17.7638 9.17179 18.8334 9.16666C19.895 9.16666 20.9367 9.38 21.9517 9.78666C23.0567 10.2283 23.9067 10.8833 24.6784 11.6533C25.45 12.4267 26.105 13.2767 26.5467 14.3817C26.9534 15.3967 27.1667 16.4383 27.1667 17.5C27.1667 18.5617 26.9534 19.6033 26.5467 20.6183C26.11 21.71 25.465 22.555 24.705 23.3183L22.895 25.2933C22.5962 25.6191 22.1802 25.8128 21.7386 25.8319C21.2969 25.851 20.8658 25.6938 20.54 25.395C20.2143 25.0962 20.0205 24.6802 20.0015 24.2386C19.9824 23.7969 20.1396 23.3658 20.4384 23.04L22.2717 21.04L22.3217 20.9883C22.8834 20.4267 23.2284 19.9433 23.4517 19.3817C23.7134 18.73 23.8334 18.105 23.8334 17.5C23.8334 16.895 23.7134 16.27 23.4517 15.6183C23.2284 15.0567 22.8834 14.5733 22.3217 14.0117C21.76 13.45 21.2767 13.105 20.715 12.88C20.1181 12.6335 19.4792 12.5045 18.8334 12.5Z" fill="#F6AC59"/>
</svg>
