<svg width="22" height="22" viewBox="0 0 22 22" fill="none" xmlns="http://www.w3.org/2000/svg">
<g opacity="0.4">
<path fill-rule="evenodd" clip-rule="evenodd" d="M12.8109 1.83362C12.8502 1.83362 12.8888 1.83693 12.9264 1.8433L13.0519 1.84407C13.2389 1.84407 13.4176 1.92015 13.5478 2.0549L18.1907 6.89215C18.3135 7.01957 18.3824 7.19098 18.3824 7.3679V15.7701C18.3988 18.07 16.6076 19.9492 14.304 20.0427L6.95328 20.0436H6.85336C4.60758 19.9928 2.80643 18.1765 2.75156 15.9526L2.75128 5.94982C2.80445 3.67557 4.6827 1.84407 6.94045 1.84407L12.6953 1.8433C12.7329 1.83693 12.7715 1.83362 12.8109 1.83362ZM12.1233 3.2187L6.94228 3.21907C5.42337 3.21907 4.16203 4.44923 4.12628 5.96632V15.7701C4.09237 17.3403 5.32986 18.6337 6.88453 18.6686H14.2765C15.8064 18.6053 17.0183 17.3339 17.0074 15.7756L17.0073 8.2347L15.1649 8.23562C13.4874 8.23103 12.1234 6.86337 12.1234 5.1877L12.1233 3.2187ZM12.6396 13.391C13.0191 13.391 13.3271 13.699 13.3271 14.0785C13.3271 14.458 13.0191 14.766 12.6396 14.766H7.68964C7.31014 14.766 7.00214 14.458 7.00214 14.0785C7.00214 13.699 7.31014 13.391 7.68964 13.391H12.6396ZM10.7651 9.95171C11.1446 9.95171 11.4526 10.2597 11.4526 10.6392C11.4526 11.0187 11.1446 11.3267 10.7651 11.3267H7.68882C7.30932 11.3267 7.00132 11.0187 7.00132 10.6392C7.00132 10.2597 7.30932 9.95171 7.68882 9.95171H10.7651ZM13.4983 3.98962L13.4984 5.1877C13.4984 6.10803 14.2473 6.85787 15.1667 6.86062L16.2538 6.8597L13.4983 3.98962Z" fill="white"/>
</g>
</svg>
