<svg width="32" height="32" viewBox="0 0 32 32" fill="none" xmlns="http://www.w3.org/2000/svg">
<g opacity="0.05" clip-path="url(#clip0_41_568)">
<path d="M16 14.6667C17.7681 14.6667 19.4638 15.3691 20.714 16.6193C21.9642 17.8695 22.6666 19.5652 22.6666 21.3334V29.3334H20V21.3334C20 20.3131 19.6102 19.3313 18.9102 18.589C18.2103 17.8467 17.2531 17.3999 16.2346 17.34L16 17.3334C14.9797 17.3333 13.9979 17.7231 13.2556 18.4231C12.5133 19.123 12.0665 20.0802 12.0066 21.0987L12 21.3334V29.3334H9.33329V21.3334C9.33329 19.5652 10.0357 17.8695 11.2859 16.6193C12.5362 15.3691 14.2318 14.6667 16 14.6667ZM7.33329 18.6667C7.70529 18.6667 8.06663 18.7107 8.41329 18.792C8.18532 19.4707 8.05032 20.1771 8.01196 20.892L7.99996 21.3334V21.448C7.8467 21.3932 7.68728 21.3574 7.52529 21.3414L7.33329 21.3334C6.83612 21.3334 6.35677 21.5186 5.98873 21.8528C5.6207 22.1871 5.39035 22.6465 5.34263 23.1414L5.33329 23.3334V29.3334H2.66663V23.3334C2.66663 22.0957 3.15829 20.9087 4.03346 20.0335C4.90863 19.1584 6.09562 18.6667 7.33329 18.6667ZM24.6666 18.6667C25.9043 18.6667 27.0913 19.1584 27.9665 20.0335C28.8416 20.9087 29.3333 22.0957 29.3333 23.3334V29.3334H26.6666V23.3334C26.6666 22.8362 26.4814 22.3568 26.1471 21.9888C25.8129 21.6208 25.3535 21.3904 24.8586 21.3427L24.6666 21.3334C24.4333 21.3334 24.2093 21.3734 24 21.4467V21.3334C24 20.4454 23.856 19.592 23.588 18.7947C23.9333 18.7107 24.2946 18.6667 24.6666 18.6667ZM7.33329 10.6667C8.21735 10.6667 9.06519 11.0179 9.69031 11.643C10.3154 12.2681 10.6666 13.116 10.6666 14C10.6666 14.8841 10.3154 15.7319 9.69031 16.357C9.06519 16.9822 8.21735 17.3334 7.33329 17.3334C6.44924 17.3334 5.60139 16.9822 4.97627 16.357C4.35115 15.7319 3.99996 14.8841 3.99996 14C3.99996 13.116 4.35115 12.2681 4.97627 11.643C5.60139 11.0179 6.44924 10.6667 7.33329 10.6667ZM24.6666 10.6667C25.5507 10.6667 26.3985 11.0179 27.0236 11.643C27.6488 12.2681 28 13.116 28 14C28 14.8841 27.6488 15.7319 27.0236 16.357C26.3985 16.9822 25.5507 17.3334 24.6666 17.3334C23.7826 17.3334 22.9347 16.9822 22.3096 16.357C21.6845 15.7319 21.3333 14.8841 21.3333 14C21.3333 13.116 21.6845 12.2681 22.3096 11.643C22.9347 11.0179 23.7826 10.6667 24.6666 10.6667ZM7.33329 13.3334C7.15648 13.3334 6.98691 13.4036 6.86189 13.5286C6.73686 13.6536 6.66663 13.8232 6.66663 14C6.66663 14.1768 6.73686 14.3464 6.86189 14.4714C6.98691 14.5964 7.15648 14.6667 7.33329 14.6667C7.5101 14.6667 7.67967 14.5964 7.8047 14.4714C7.92972 14.3464 7.99996 14.1768 7.99996 14C7.99996 13.8232 7.92972 13.6536 7.8047 13.5286C7.67967 13.4036 7.5101 13.3334 7.33329 13.3334ZM24.6666 13.3334C24.4898 13.3334 24.3202 13.4036 24.1952 13.5286C24.0702 13.6536 24 13.8232 24 14C24 14.1768 24.0702 14.3464 24.1952 14.4714C24.3202 14.5964 24.4898 14.6667 24.6666 14.6667C24.8434 14.6667 25.013 14.5964 25.138 14.4714C25.2631 14.3464 25.3333 14.1768 25.3333 14C25.3333 13.8232 25.2631 13.6536 25.138 13.5286C25.013 13.4036 24.8434 13.3334 24.6666 13.3334ZM16 2.66669C17.4144 2.66669 18.771 3.22859 19.7712 4.22878C20.7714 5.22898 21.3333 6.58553 21.3333 8.00002C21.3333 9.41451 20.7714 10.7711 19.7712 11.7713C18.771 12.7715 17.4144 13.3334 16 13.3334C14.5855 13.3334 13.2289 12.7715 12.2287 11.7713C11.2285 10.7711 10.6666 9.41451 10.6666 8.00002C10.6666 6.58553 11.2285 5.22898 12.2287 4.22878C13.2289 3.22859 14.5855 2.66669 16 2.66669ZM16 5.33335C15.2927 5.33335 14.6144 5.61431 14.1143 6.1144C13.6142 6.6145 13.3333 7.29278 13.3333 8.00002C13.3333 8.70726 13.6142 9.38554 14.1143 9.88564C14.6144 10.3857 15.2927 10.6667 16 10.6667C16.7072 10.6667 17.3855 10.3857 17.8856 9.88564C18.3857 9.38554 18.6666 8.70726 18.6666 8.00002C18.6666 7.29278 18.3857 6.6145 17.8856 6.1144C17.3855 5.61431 16.7072 5.33335 16 5.33335Z" fill="white"/>
</g>
<defs>
<clipPath id="clip0_41_568">
<rect width="32" height="32" fill="white"/>
</clipPath>
</defs>
</svg>
