<svg width="32" height="32" viewBox="0 0 32 32" fill="none" xmlns="http://www.w3.org/2000/svg">
<g clip-path="url(#clip0_309_439)">
<path d="M20.8 14.4H19.2V6.40005C19.2 5.52005 18.48 4.80005 17.6 4.80005H14.4C13.52 4.80005 12.8 5.52005 12.8 6.40005V14.4H11.2C8.544 14.4 6.4 16.544 6.4 19.2V27.2C16.816 27.2 25.6 27.2 25.6 27.2V19.2C25.6 16.544 23.456 14.4 20.8 14.4ZM14.4 6.40005H17.6V14.4H14.4V6.40005ZM24 25.6H20.8V23.2C20.8 22.752 20.448 22.4 20 22.4C19.552 22.4 19.2 22.752 19.2 23.2V25.6H16.8V23.2C16.8 22.752 16.448 22.4 16 22.4C15.552 22.4 15.2 22.752 15.2 23.2V25.6H12.8V23.2C12.8 22.752 12.448 22.4 12 22.4C11.552 22.4 11.2 22.752 11.2 23.2V25.6H8V19.2C8 17.44 9.44 16 11.2 16H20.8C22.56 16 24 17.44 24 19.2V25.6Z" fill="#4A5568"/>
</g>
<defs>
<clipPath id="clip0_309_439">
<rect width="32" height="32" fill="white"/>
</clipPath>
</defs>
</svg>
