<svg width="44" height="44" viewBox="0 0 44 44" fill="none" xmlns="http://www.w3.org/2000/svg">
<rect width="44" height="44" rx="22" fill="#4A5568"/>
<rect x="0.5" y="0.5" width="43" height="43" rx="21.5" stroke="white" stroke-opacity="0.2"/>
<g clip-path="url(#clip0_241_1503)">
<path d="M14.5 25.3008C17.8333 23.5358 17.8333 21.8692 15.3333 19.3692M29.5 25.3008C26.1667 23.5358 26.1667 21.8692 28.6667 19.3692M26.0683 18.535C26.0683 17.456 25.6397 16.4212 24.8767 15.6582C24.1138 14.8953 23.079 14.4667 22 14.4667C20.921 14.4667 19.8862 14.8953 19.1233 15.6582C18.3603 16.4212 17.9317 17.456 17.9317 18.535C17.9317 22.0958 17.7542 23.8758 14.5 25.3C16.1667 26.035 16.1667 26.035 17 27.8C19.5 27.8 20.3333 29.4667 22 29.4667C23.6667 29.4667 24.5 27.8 27 27.8C27.8333 26.035 27.8333 26.035 29.5 25.3C26.245 23.8758 26.0683 22.0958 26.0683 18.535Z" stroke="white" stroke-width="1.33333" stroke-linecap="round" stroke-linejoin="round"/>
</g>
<defs>
<clipPath id="clip0_241_1503">
<rect width="20" height="20" fill="white" transform="translate(12 12)"/>
</clipPath>
</defs>
</svg>
