<svg width="22" height="22" viewBox="0 0 22 22" fill="none" xmlns="http://www.w3.org/2000/svg">
<path d="M8.25 2.75C8.25 1.23063 9.48063 0 11 0C12.5194 0 13.75 1.23063 13.75 2.75C13.75 4.26938 12.5194 5.5 11 5.5C9.48063 5.5 8.25 4.26938 8.25 2.75ZM14.0841 5.16587C14.0841 3.6465 15.3148 2.41588 16.8341 2.41588C18.3535 2.41588 19.5841 3.6465 19.5841 5.16587C19.5841 6.68525 18.3535 7.91588 16.8341 7.91588C15.3148 7.91588 14.0841 6.68525 14.0841 5.16587ZM17.875 11C17.875 10.241 18.491 9.625 19.25 9.625C20.009 9.625 20.625 10.241 20.625 11C20.625 11.759 20.009 12.375 19.25 12.375C18.491 12.375 17.875 11.759 17.875 11ZM15.4591 16.8341C15.4591 16.0751 16.0751 15.4591 16.8341 15.4591C17.5931 15.4591 18.2091 16.0751 18.2091 16.8341C18.2091 17.5931 17.5931 18.2091 16.8341 18.2091C16.0751 18.2091 15.4591 17.5931 15.4591 16.8341ZM9.625 19.25C9.625 18.491 10.241 17.875 11 17.875C11.759 17.875 12.375 18.491 12.375 19.25C12.375 20.009 11.759 20.625 11 20.625C10.241 20.625 9.625 20.009 9.625 19.25ZM3.79088 16.8341C3.79088 16.0751 4.40687 15.4591 5.16587 15.4591C5.92488 15.4591 6.54087 16.0751 6.54087 16.8341C6.54087 17.5931 5.92488 18.2091 5.16587 18.2091C4.40687 18.2091 3.79088 17.5931 3.79088 16.8341ZM3.10338 5.16587C3.10338 4.02737 4.02737 3.10337 5.16587 3.10337C6.30438 3.10337 7.22838 4.02737 7.22838 5.16587C7.22838 6.30438 6.30438 7.22838 5.16587 7.22838C4.02737 7.22838 3.10338 6.30438 3.10338 5.16587ZM1.20312 11C1.20312 10.1461 1.89613 9.45312 2.75 9.45312C3.60388 9.45312 4.29688 10.1461 4.29688 11C4.29688 11.8539 3.60388 12.5469 2.75 12.5469C1.89613 12.5469 1.20312 11.8539 1.20312 11Z" fill="white" fill-opacity="0.6"/>
</svg>
