<svg width="44" height="44" viewBox="0 0 44 44" fill="none" xmlns="http://www.w3.org/2000/svg">
<rect width="44" height="44" rx="22" fill="#4A5568"/>
<rect x="0.5" y="0.5" width="43" height="43" rx="21.5" stroke="white" stroke-opacity="0.2"/>
<path d="M31 16.0897C30.15 16.4871 29.317 16.6484 28.45 16.8925C27.4972 15.8667 26.0845 15.8099 24.727 16.2949C23.3696 16.7798 22.4805 17.9654 22.5 19.3254V20.1364C19.7418 20.2037 17.2853 19.0051 15.7 16.8925C15.7 16.8925 12.1453 22.9204 19.1 25.813C17.5088 26.8243 15.9218 27.5063 14 27.435C16.8118 28.8971 19.8761 29.3999 22.5289 28.6652C25.5719 27.8218 28.0726 25.646 29.0322 22.3868C29.3185 21.3955 29.4607 20.3714 29.4547 19.3432C29.453 19.1413 30.7382 17.0953 31 16.0889V16.0897Z" stroke="white" stroke-width="1.6" stroke-linecap="round" stroke-linejoin="round"/>
</svg>
