<svg width="31" height="24" viewBox="0 0 31 24" fill="none" xmlns="http://www.w3.org/2000/svg">
<path opacity="0.6" d="M29.8 0.954472C28.36 1.63917 26.9488 1.91724 25.48 2.33784C23.8658 0.570203 21.4725 0.47239 19.1728 1.308C16.8731 2.14361 15.3669 4.18651 15.4 6.52985V7.92719C10.7272 8.04317 6.5656 5.9779 3.88 2.33784C3.88 2.33784 -2.14208 12.7243 9.64 17.7086C6.94432 19.451 4.25584 20.6262 1 20.5032C5.76352 23.0226 10.9547 23.889 15.449 22.623C20.6042 21.1698 24.8406 17.4207 26.4664 11.8048C26.9514 10.0968 27.1922 8.33222 27.1821 6.56059C27.1792 6.21266 29.3565 2.68717 29.8 0.953074V0.954472Z" stroke="white" stroke-width="1.6" stroke-linecap="round" stroke-linejoin="round"/>
</svg>
