<svg width="34" height="34" viewBox="0 0 34 34" fill="none" xmlns="http://www.w3.org/2000/svg">
<g opacity="0.05">
<path fill-rule="evenodd" clip-rule="evenodd" d="M16.8393 20.4199L16.9993 20.4199L17.3571 20.4211C20.0921 20.4391 26.3423 20.7154 26.3423 24.9518C26.3423 29.1603 20.31 29.4348 17.3997 29.4527L16.3215 29.4527C13.5863 29.4347 7.33489 29.1587 7.33489 24.9277C7.33489 20.7138 13.5863 20.439 16.3215 20.4211L16.6793 20.4199C16.7349 20.4199 16.7882 20.4199 16.8393 20.4199ZM16.8393 22.5449C13.4733 22.5449 9.45989 22.9585 9.45989 24.9277C9.45989 26.8523 13.2338 27.3023 16.5317 27.3278L16.8393 27.3289C20.2053 27.3289 24.2173 26.9167 24.2173 24.9518C24.2173 22.9628 20.2053 22.5449 16.8393 22.5449ZM28.1069 19.845C31.5395 20.3592 32.2606 21.9714 32.2606 23.2336C32.2606 24.0043 31.9574 25.4111 29.9316 26.1831C29.8069 26.2299 29.6794 26.2526 29.5533 26.2526C29.1255 26.2526 28.7217 25.9919 28.5602 25.5683C28.3506 25.0201 28.6268 24.4052 29.1751 24.197C30.1356 23.8315 30.1356 23.4277 30.1356 23.2336C30.1356 22.6131 29.3465 22.1796 27.791 21.9473C27.2116 21.8595 26.8107 21.3197 26.8971 20.7375C26.9835 20.1566 27.5218 19.7699 28.1069 19.845ZM6.78013 20.7375C6.86654 21.3197 6.46563 21.8595 5.88621 21.9473C4.33071 22.1796 3.54163 22.6131 3.54163 23.2336C3.54163 23.4277 3.54163 23.8301 4.50354 24.197C5.05179 24.4052 5.32804 25.0201 5.11838 25.5683C4.95688 25.9919 4.55313 26.2526 4.12529 26.2526C3.99921 26.2526 3.87171 26.2299 3.74704 26.1831C1.71979 25.4096 1.41663 24.0029 1.41663 23.2336C1.41663 21.9728 2.13771 20.3592 5.57171 19.845C6.15679 19.7713 6.69229 20.1566 6.78013 20.7375ZM16.8393 5.66669C20.4093 5.66669 23.3121 8.57085 23.3121 12.1394C23.3121 15.708 20.4093 18.6122 16.8393 18.6122H16.8011C15.0727 18.6065 13.4535 17.9294 12.2408 16.7054C11.0253 15.4828 10.3609 13.8593 10.3679 12.1352C10.3679 8.57085 13.2707 5.66669 16.8393 5.66669ZM16.8393 7.79169C14.4423 7.79169 12.4929 9.74244 12.4929 12.1394C12.4887 13.3011 12.9336 14.3877 13.7481 15.2079C14.5627 16.0282 15.6479 16.4829 16.8039 16.4872L16.8393 17.5497V16.4872C19.2363 16.4872 21.1871 14.5379 21.1871 12.1394C21.1871 9.74244 19.2363 7.79169 16.8393 7.79169ZM25.6071 7.05431C28.0976 7.46373 29.9066 9.5944 29.9066 12.1203C29.901 14.6632 28.0012 16.8449 25.4866 17.1976C25.4371 17.2047 25.3875 17.2076 25.3393 17.2076C24.818 17.2076 24.3632 16.8236 24.2881 16.2924C24.2074 15.7101 24.6111 15.1732 25.1934 15.0925C26.6667 14.8856 27.7788 13.6078 27.7816 12.1175C27.7816 10.6399 26.722 9.3904 25.2614 9.15098C24.6834 9.05606 24.291 8.50923 24.3859 7.92981C24.4822 7.3504 25.0248 6.96223 25.6071 7.05431ZM9.29273 7.92981C9.38764 8.50923 8.99523 9.05606 8.41723 9.15098C6.95664 9.3904 5.89698 10.6399 5.89698 12.1203C5.89981 13.6078 7.01189 14.8871 8.48381 15.0925C9.06606 15.1732 9.46981 15.7101 9.38906 16.2924C9.31398 16.8236 8.85923 17.2076 8.33789 17.2076C8.28973 17.2076 8.24014 17.2047 8.19056 17.1976C5.67598 16.8449 3.77764 14.6632 3.77198 12.1231C3.77198 9.5944 5.58106 7.46373 8.07156 7.05431C8.66798 6.96081 9.19639 7.35323 9.29273 7.92981Z" fill="white"/>
</g>
</svg>
