<svg width="22" height="22" viewBox="0 0 22 22" fill="none" xmlns="http://www.w3.org/2000/svg">
<path fill-rule="evenodd" clip-rule="evenodd" d="M10.896 13.2129L10.9995 13.2129L11.2311 13.2137C13.0008 13.2253 17.045 13.4041 17.045 16.1453C17.045 18.8684 13.1417 19.046 11.2586 19.0576L10.561 19.0576C8.79114 19.046 4.74609 18.8674 4.74609 16.1297C4.74609 13.4031 8.79114 13.2253 10.561 13.2137L10.7925 13.2129C10.8284 13.2129 10.8629 13.2129 10.896 13.2129ZM10.896 14.5879C8.71801 14.5879 6.12109 14.8555 6.12109 16.1297C6.12109 17.375 8.56301 17.6662 10.6969 17.6827L10.896 17.6834C13.074 17.6834 15.67 17.4167 15.67 16.1453C15.67 14.8583 13.074 14.5879 10.896 14.5879ZM18.1868 12.8409C20.4079 13.1736 20.8745 14.2168 20.8745 15.0335C20.8745 15.5322 20.6783 16.4425 19.3675 16.942C19.2868 16.9723 19.2043 16.987 19.1227 16.987C18.8459 16.987 18.5846 16.8183 18.4801 16.5442C18.3445 16.1895 18.5232 15.7916 18.878 15.6569C19.4995 15.4204 19.4995 15.1591 19.4995 15.0335C19.4995 14.632 18.9889 14.3515 17.9824 14.2012C17.6075 14.1444 17.3481 13.7951 17.404 13.4184C17.4599 13.0425 17.8082 12.7923 18.1868 12.8409ZM4.38713 13.4184C4.44304 13.7951 4.18363 14.1444 3.80871 14.2012C2.80221 14.3515 2.29163 14.632 2.29163 15.0335C2.29163 15.1591 2.29163 15.4195 2.91404 15.6569C3.26879 15.7916 3.44754 16.1895 3.31188 16.5442C3.20738 16.8183 2.94613 16.987 2.66929 16.987C2.58771 16.987 2.50521 16.9723 2.42454 16.942C1.11279 16.4415 0.916626 15.5313 0.916626 15.0335C0.916626 14.2177 1.38321 13.1736 3.60521 12.8409C3.98379 12.7932 4.33029 13.0425 4.38713 13.4184ZM10.896 3.66669C13.206 3.66669 15.0843 5.54585 15.0843 7.85494C15.0843 10.164 13.206 12.0432 10.896 12.0432H10.8713C9.75293 12.0395 8.70518 11.6014 7.92051 10.8094C7.13401 10.0183 6.70409 8.96777 6.70864 7.85219C6.70864 5.54585 8.58693 3.66669 10.896 3.66669ZM10.896 5.04169C9.34501 5.04169 8.08366 6.30394 8.08366 7.85494C8.08093 8.6066 8.36876 9.30969 8.89584 9.84044C9.42293 10.3712 10.1251 10.6654 10.8731 10.6682L10.896 11.3557V10.6682C12.447 10.6682 13.7093 9.40685 13.7093 7.85494C13.7093 6.30394 12.447 5.04169 10.896 5.04169ZM16.5693 4.56456C18.1808 4.82948 19.3513 6.20815 19.3513 7.84256C19.3477 9.48798 18.1184 10.8996 16.4913 11.1279C16.4593 11.1325 16.4272 11.1343 16.396 11.1343C16.0587 11.1343 15.7644 10.8859 15.7158 10.5421C15.6636 10.1654 15.9248 9.81798 16.3016 9.76573C17.2549 9.6319 17.9745 8.80506 17.9763 7.84073C17.9763 6.88465 17.2907 6.07615 16.3456 5.92123C15.9716 5.85981 15.7177 5.50598 15.7791 5.13106C15.8414 4.75615 16.1925 4.50498 16.5693 4.56456ZM6.01293 5.13106C6.07434 5.50598 5.82043 5.85981 5.44643 5.92123C4.50134 6.07615 3.81568 6.88465 3.81568 7.84256C3.81751 8.80506 4.53709 9.63281 5.48951 9.76573C5.86626 9.81798 6.12751 10.1654 6.07526 10.5421C6.02668 10.8859 5.73243 11.1343 5.39509 11.1343C5.36393 11.1343 5.33184 11.1325 5.29976 11.1279C3.67268 10.8996 2.44434 9.48798 2.44068 7.8444C2.44068 6.20815 3.61126 4.82948 5.22276 4.56456C5.60868 4.50406 5.95059 4.75798 6.01293 5.13106Z" fill="#ED5950"/>
</svg>
