<svg width="34" height="34" viewBox="0 0 34 34" fill="none" xmlns="http://www.w3.org/2000/svg">
<g opacity="0.05">
<path fill-rule="evenodd" clip-rule="evenodd" d="M23.5756 4.25C28.2605 4.25 32.0713 8.06083 32.0713 12.7472V22.9146C32.0713 27.5995 28.2605 31.4117 23.5756 31.4117H11.3299C6.64501 31.4117 2.83276 27.5995 2.83276 22.9146V12.7472C2.83276 8.06083 6.64501 4.25 11.3299 4.25H23.5756ZM23.5756 6.375H11.3299C7.8166 6.375 4.95776 9.23383 4.95776 12.7472V22.9146C4.95776 26.4279 7.8166 29.2867 11.3299 29.2867H23.5756C27.0889 29.2867 29.9463 26.4279 29.9463 22.9146V22.5179L25.2743 22.5188C22.5869 22.5188 20.3996 20.3328 20.3982 17.6468C20.3982 14.958 22.5855 12.7707 25.2743 12.7693L29.9463 12.7684V12.7472C29.9463 9.23383 27.0889 6.375 23.5756 6.375ZM29.9463 14.8934L25.2743 14.8943C23.7571 14.8957 22.5232 16.1296 22.5232 17.6454C22.5232 19.1598 23.7585 20.3938 25.2743 20.3938L29.9463 20.3929V14.8934ZM25.9226 16.4951C26.5091 16.4951 26.9851 16.9711 26.9851 17.5576C26.9851 18.1441 26.5091 18.6201 25.9226 18.6201H25.4806C24.8941 18.6201 24.4181 18.1441 24.4181 17.5576C24.4181 16.9711 24.8941 16.4951 25.4806 16.4951H25.9226ZM17.9698 10.679C18.5563 10.679 19.0323 11.155 19.0323 11.7415C19.0323 12.328 18.5563 12.804 17.9698 12.804H10.3213C9.73476 12.804 9.25876 12.328 9.25876 11.7415C9.25876 11.155 9.73476 10.679 10.3213 10.679H17.9698Z" fill="white"/>
</g>
</svg>
