<svg width="44" height="44" viewBox="0 0 44 44" fill="none" xmlns="http://www.w3.org/2000/svg">
<rect width="44" height="44" rx="22" fill="#4A5568"/>
<rect x="0.5" y="0.5" width="43" height="43" rx="21.5" stroke="white" stroke-opacity="0.2"/>
<path d="M26.0056 23.9147C25.8009 23.812 24.7937 23.317 24.6062 23.2481C24.418 23.1799 24.2815 23.1461 24.1443 23.3515C24.0085 23.5563 23.6155 24.0175 23.4963 24.154C23.377 24.2911 23.257 24.3077 23.0523 24.2057C22.8475 24.1023 22.1871 23.8865 21.4047 23.1888C20.7959 22.6456 20.3844 21.9748 20.2651 21.7694C20.1459 21.5646 20.2527 21.4536 20.3547 21.3516C20.4471 21.2599 20.5602 21.1124 20.6622 20.9931C20.7649 20.8732 20.7987 20.7877 20.8676 20.6505C20.9359 20.514 20.9021 20.3947 20.8504 20.292C20.7987 20.1893 20.3892 19.1807 20.2189 18.7706C20.0521 18.3714 19.8832 18.4259 19.7577 18.419C19.6268 18.4138 19.4958 18.4115 19.3648 18.4121C19.2283 18.4121 19.0063 18.4631 18.8188 18.6685C18.6313 18.8733 18.1018 19.3689 18.1018 20.3775C18.1018 21.3854 18.836 22.3595 18.9381 22.4967C19.0408 22.6332 20.383 24.7027 22.4381 25.5899C22.9268 25.8009 23.3081 25.927 23.6059 26.0208C24.0967 26.1773 24.5434 26.1552 24.8957 26.1022C25.2893 26.0436 26.1076 25.6065 26.2786 25.1281C26.4496 24.6496 26.4496 24.2394 26.3979 24.154C26.3469 24.0685 26.2104 24.0175 26.0049 23.9147M22.2678 29.0182H22.265C21.0447 29.0183 19.8467 28.6902 18.7967 28.0683L18.5479 27.9207L15.9689 28.5977L16.6569 26.0829L16.4949 25.825C15.8127 24.7387 15.4518 23.4816 15.4539 22.1989C15.4546 18.4417 18.512 15.385 22.2705 15.385C24.0905 15.385 25.8016 16.0951 27.0879 17.3828C27.7226 18.0147 28.2257 18.7662 28.5681 19.5939C28.9104 20.4215 29.0852 21.3088 29.0823 22.2044C29.0803 25.9615 26.0235 29.0182 22.2678 29.0182ZM28.0676 16.4046C27.308 15.64 26.4042 15.0338 25.4087 14.621C24.4131 14.2083 23.3455 13.9972 22.2678 14C17.7489 14 14.071 17.6779 14.0689 22.1982C14.0689 23.6431 14.446 25.0536 15.1637 26.2966L14 30.5452L18.3466 29.405C19.5486 30.0598 20.8955 30.403 22.2643 30.4032H22.2678C26.786 30.4032 30.4645 26.7254 30.4666 22.2044C30.4699 21.1271 30.2596 20.0598 29.8478 19.0643C29.4361 18.0687 28.831 17.1648 28.0676 16.4046Z" fill="white"/>
</svg>
