<svg width="18" height="18" viewBox="0 0 18 18" fill="none" xmlns="http://www.w3.org/2000/svg">
<path d="M12.6091 10.5401C12.4043 10.4374 11.3971 9.94241 11.2096 9.87347C11.0214 9.80522 10.8849 9.77144 10.7477 9.97688C10.6119 10.1816 10.219 10.6428 10.0997 10.7793C9.98045 10.9165 9.8605 10.9331 9.65575 10.831C9.451 10.7276 8.79057 10.5118 8.00812 9.81419C7.3994 9.27095 6.98783 8.60018 6.86857 8.39475C6.74931 8.19 6.85616 8.07901 6.95819 7.97698C7.05057 7.88529 7.16363 7.73776 7.26566 7.6185C7.36837 7.49855 7.40215 7.41306 7.47109 7.27588C7.53934 7.13938 7.50556 7.02011 7.45386 6.9174C7.40215 6.81468 6.99266 5.80611 6.82238 5.39593C6.65555 4.99677 6.48665 5.05124 6.36119 5.04434C6.23027 5.03913 6.09925 5.03683 5.96824 5.03745C5.83174 5.03745 5.60976 5.08846 5.42224 5.2939C5.23473 5.49865 4.70529 5.99431 4.70529 7.00288C4.70529 8.01076 5.43948 8.98486 5.54151 9.12204C5.64423 9.25854 6.98646 11.3281 9.04151 12.2153C9.53028 12.4263 9.91151 12.5524 10.2093 12.6462C10.7002 12.8027 11.1469 12.7806 11.4992 12.7275C11.8928 12.6689 12.7111 12.2319 12.8821 11.7534C13.053 11.275 13.053 10.8648 13.0013 10.7793C12.9503 10.6938 12.8138 10.6428 12.6084 10.5401M8.87123 15.6436H8.86847C7.6481 15.6437 6.45017 15.3156 5.40018 14.6936L5.15132 14.5461L2.57233 15.2231L3.26034 12.7082L3.09833 12.4504C2.41615 11.3641 2.05526 10.107 2.05736 8.82423C2.05805 5.06709 5.11547 2.01037 8.87399 2.01037C10.694 2.01037 12.405 2.72043 13.6914 4.0082C14.3261 4.6401 14.8292 5.3916 15.1715 6.21922C15.5138 7.04683 15.6886 7.93413 15.6858 8.82975C15.6837 12.5869 12.627 15.6436 8.87123 15.6436M14.671 3.02996C13.9114 2.26538 13.0077 1.65915 12.0121 1.24639C11.0166 0.833632 9.94897 0.622556 8.87123 0.625394C4.35232 0.625394 0.674461 4.30325 0.672393 8.82354C0.672393 10.2685 1.04949 11.679 1.76713 12.9219L0.603455 17.1706L4.95002 16.0304C6.15202 16.6852 7.49897 17.0284 8.86778 17.0286H8.87123C13.3894 17.0286 17.068 13.3507 17.0701 8.82975C17.0734 7.75243 16.8631 6.68514 16.4513 5.68963C16.0395 4.69411 15.4344 3.79013 14.671 3.02996V3.02996Z" fill="white"/>
</svg>
